<?xml version="1.0" encoding="UTF-8"?>
<svg width="1016px" height="126px" viewBox="0 0 1016 126" version="1.1" xmlns="http://www.w3.org/2000/svg" xmlns:xlink="http://www.w3.org/1999/xlink">
    <!-- Generator: Sketch 63.1 (92452) - https://sketch.com -->
    <title>Group 2</title>
    <desc>Created with Sketch.</desc>
    <g id="Page-3--TJ" stroke="none" stroke-width="1" fill="none" fill-rule="evenodd">
        <g id="Page-3" transform="translate(-4.000000, -3303.000000)">
            <g id="section-6" transform="translate(4.000000, 3212.000000)">
                <g id="Group-2" transform="translate(0.000000, 91.000000)">
                    <rect id="Rectangle" fill="#1D86CA" x="0" y="0" width="1016" height="126"></rect>
                    <g id="logos" transform="translate(35.000000, 23.000000)" fill="#8CD2FF">
                        <path d="M71.9295882,44.4375 L59.8669412,53.16542 L58.3882941,64.93958 L43.7415882,64.93958 L41.5752353,66.50694 C41.0320588,66.90036 40.3777059,67.11208 39.7058824,67.11208 C39.0340588,67.11208 38.3797059,66.90036 37.8381176,66.50694 L35.6701765,64.93958 L21.0234706,64.93958 L19.5448235,53.16542 L7.48058824,44.4375 C7.128,43.0708 6.94852941,41.66302 6.94852941,40.25208 C6.94852941,37.89314 7.44723529,35.56106 8.41447059,33.40752 L29.7730588,54.89236 L9.00847059,29.39116 C9.82482353,26.08422 11.6338235,23.10276 14.1940588,20.8402 L32.8065882,52.80044 L16.3143529,17.81134 C18.4489412,14.9863 21.4237059,12.90544 24.8161765,11.86106 L36.1974706,51.5317 L27.8830588,10.22576 C30.4115294,8.80692 33.2671765,8.06116 36.1720588,8.06116 C36.7867059,8.06116 37.3997647,8.09434 38.0112353,8.1607 L39.7058824,51.11458 L41.4005294,8.1607 C42.0104118,8.09434 42.6250588,8.06116 43.2412941,8.06116 C46.1445882,8.06116 48.9986471,8.80692 51.5287059,10.22576 L43.2142941,51.5317 L54.5955882,11.86106 C57.9880588,12.90544 60.9628235,14.9863 63.0958235,17.81134 L46.6051765,52.80044 L65.2161176,20.8402 C67.7779412,23.10276 69.5853529,26.08422 70.4032941,29.39116 L49.6387059,54.89236 L70.9972941,33.40752 C71.9629412,35.56106 72.4632353,37.89314 72.4632353,40.25208 C72.4632353,41.66302 72.2853529,43.0708 71.9295882,44.4375 M39.7058824,1.975 C17.7882353,1.975 0,19.671 0,41.475 C0,44.1294 0.268411765,46.77432 0.802058824,49.375 L13.0235294,58.21826 L14.8897059,73.075 L35.0396471,73.075 L36.2022353,73.91556 C37.2202941,74.65342 38.4464118,75.05 39.7058824,75.05 C40.9653529,75.05 42.1898824,74.65342 43.2095294,73.91556 L44.3721176,73.075 L64.5220588,73.075 L66.3898235,58.21826 L78.6097059,49.375 C79.1433529,46.77432 79.4117647,44.1294 79.4117647,41.475 C79.4117647,19.671 61.6235294,1.975 39.7058824,1.975" id="shell"></path>
                        <g id="monster" transform="translate(184.632353, 0.987500)">
                            <polygon id="Fill-1" points="31.5408856 0 31.2319271 0.0552862906 30.9537277 0.167276469 30.2428496 0.748491319 29.1922538 1.19149044 26.9352159 1.60755522 26.4095763 1.77341409 25.9153793 2.0229112 25.4820171 2.32698579 25.0800976 2.68847308 24.6788616 2.79833686 24.3077012 2.79833686 23.9365408 2.65941234 23.5961396 2.46591032 23.4109011 2.46591032 23.2263463 2.49426226 23.0404243 2.54883976 22.8852615 2.65941234 22.7923005 2.96490453 22.6385048 3.24204478 22.4525828 3.49083309 22.2051426 3.68433511 21.803223 3.82396843 21.4320626 4.04582239 21.1237876 4.32225385 20.8455882 4.65397159 21.0308267 5.09767951 21.0308267 5.26424718 21.0615858 5.4577492 21.1545468 5.62431687 21.2775834 5.73488945 21.4320626 5.84617083 21.6179846 5.87310518 21.803223 5.87310518 21.9583858 5.81781889 22.5455438 6.0120297 22.6692639 6.17859737 22.7923005 6.3168131 22.9474633 6.42738568 23.1333853 6.51031511 23.3186237 6.53866706 23.5038621 6.53866706 23.6891005 6.51031511 23.874339 6.45573762 24.4314213 6.17859737 25.667939 7.11988191 26.1006177 7.50759474 26.4717781 7.97894581 26.5954982 8.20079977 26.6262574 8.44958808 26.6262574 8.92164794 26.7192183 9.39229021 26.9044568 10.2506453 26.9974178 11.1366436 26.9659751 11.5250652 26.8730141 11.912778 26.6884592 12.2728477 26.4403354 12.5769223 26.2865397 12.8271282 26.162136 13.0759165 26.162136 13.2424842 26.1935787 13.4083431 26.255097 13.5749107 26.3172988 13.7131265 26.5954982 14.1015481 26.9352159 14.4616178 27.2756172 14.7933355 27.5845757 15.1817572 27.739055 15.4865405 27.8012568 15.6523994 27.8012568 15.8182583 27.7698141 16.678031 27.646094 17.5370949 27.553133 18.0906666 27.4916147 18.6165952 27.460172 19.1708757 27.4916147 19.7244474 27.5845757 20.2794367 27.8012568 20.7777221 27.8935342 21.0541535 27.9242934 21.3320026 27.9242934 21.6091428 27.8620916 21.9132174 27.553133 23.1047079 27.4916147 23.4647776 27.460172 23.8248472 27.4916147 23.9914149 27.553133 24.1572738 27.6153348 24.2954895 27.7082958 24.434414 28.1409745 25.0439808 28.2961373 25.4040505 28.4191739 25.7364771 28.5114513 26.0965468 28.5736532 26.4842596 28.6044123 26.8450381 28.6044123 27.2320421 28.4806922 28.5631659 28.3884148 29.2266014 28.2339355 29.8921632 28.1717337 30.4457349 28.1409745 31.0000154 28.1409745 31.5542959 28.2031763 32.1078677 28.2961373 32.662857 28.4191739 33.1880767 28.5736532 33.7154229 28.7903343 34.2413514 29.0063319 34.7949231 29.223013 35.3768468 29.3781758 35.9587704 29.5012124 36.5683372 29.5319715 37.0113363 29.4704532 37.4274011 29.3781758 37.8704002 29.1922538 38.2581131 28.9755727 38.8123936 28.7903343 39.3943172 28.6666142 39.9755321 28.6044123 40.5850989 28.5736532 41.2506608 28.4499331 41.914805 28.2961373 42.5527238 28.1102154 43.1892249 27.7698141 44.1588614 27.3672111 45.1292067 26.9659751 46.0428481 26.3473744 47.2619817 26.2865397 47.5944082 26.3172988 47.9261259 26.4095763 48.2309093 26.7192183 48.8681193 27.1211379 49.4776861 27.3063763 49.7831783 27.460172 50.0872529 27.5845757 50.4196794 27.646094 50.7797491 27.6768531 51.2787433 27.6153348 52.3313092 27.5223739 52.8579466 27.460172 53.3838751 27.4294129 53.9105125 27.4294129 54.4640842 27.4916147 54.9914304 27.5845757 55.3507913 27.8935342 56.0709306 28.0172544 56.4033572 28.1409745 56.7641357 28.2031763 57.1518485 28.2339355 57.5119182 28.2646946 57.899631 28.2646946 58.2589919 28.2031763 58.6474135 28.0480135 59.8941903 27.9550525 61.140967 27.9864952 61.9723877 28.1102154 62.8030997 28.2961373 63.6054597 28.5422105 64.4099461 28.5736532 64.5765138 28.5422105 64.769307 28.4191739 65.1300855 28.2031763 65.4348689 27.9242934 65.8502249 27.7082958 66.2939328 27.6768531 66.4874348 27.6768531 66.6532937 27.7082958 66.8475045 27.8012568 67.0140722 28.1717337 67.5130664 28.5422105 68.0382861 28.8518526 68.5925666 29.0992928 69.1468471 29.3467331 69.7564139 29.5012124 70.3659807 29.6249325 71.0031907 29.7172099 71.6120487 29.8101709 72.3052537 29.8101709 72.9701068 29.6249325 73.856105 29.5012124 74.7428121 29.3781758 75.5189465 29.2544556 75.9059506 29.0992928 76.2943722 28.9755727 76.5715125 28.9133709 76.903939 28.8832953 77.2087224 28.9133709 77.5411489 29.0063319 77.790646 29.130052 78.0125 29.4390105 77.7622941 29.6864508 77.4851538 30.61401 75.7677348 30.8306911 75.408374 31.015246 75.0199523 31.1704088 74.6329483 31.2941289 74.2168835 31.3563307 73.8008187 31.3870899 73.3578196 31.3870899 72.9424636 31.324888 72.5271077 31.324888 71.667335 31.5408856 70.9755475 31.7582503 70.8373318 31.8512112 70.7544024 31.9127295 70.6154778 31.9127295 70.3936239 31.8819704 70.1717699 31.7268076 69.4523393 31.7268076 69.2304854 31.7890094 69.0362746 31.9441722 68.6762049 32.0364497 68.2877832 32.097968 67.6229302 32.1287271 67.1246447 32.1902454 66.6532937 32.2832064 66.1557171 32.4069265 65.6836572 32.5306466 65.3242963 32.5921649 64.9635178 32.6543668 64.5765138 32.6229241 64.160449 32.5306466 63.8003793 32.3447247 63.4403096 32.0672088 63.0242449 31.8512112 62.5536026 31.6652893 62.0822515 31.5408856 61.5839661 31.4492917 61.0849719 31.3870899 60.5866865 31.3870899 60.0607579 31.4492917 59.5610549 31.6030874 58.5644841 31.6960484 57.5395613 31.6652893 56.5415729 31.5101265 55.5450021 31.8512112 54.8525058 32.2524472 54.2145871 32.2832064 53.4398702 32.2524472 52.6360926 32.1594863 51.8330238 31.9742478 51.0568893 31.8819704 50.4756745 31.8197686 49.8937509 31.8197686 49.2834753 31.8512112 48.7022604 31.9127295 48.203975 31.9127295 47.6773376 31.8512112 47.1790522 31.7582503 46.6793492 31.6652893 46.2087069 31.6345301 45.7373559 31.7268076 45.0179253 31.8819704 44.3254291 32.1287271 43.6329328 32.4376857 42.9950141 32.901807 42.0253776 33.3344857 41.028098 33.4274467 40.41924 33.5190406 39.7827389 33.5504833 39.504181 33.6434442 39.2277496 33.7357217 38.9789613 33.8908845 38.7571073 34.5710034 37.9256865 35.1889205 37.0389795 35.3126406 36.8171255 35.4985626 36.3195489 35.5600809 36.0700518 35.59084 35.8205547 35.59084 35.5434145 35.5600809 35.2939173 35.4985626 35.0174859 34.9729229 33.3270012 34.4172077 31.6648685 34.199843 31.0553017 34.0139211 30.4457349 33.9530863 29.7815907 33.9838455 29.1167376 34.0453638 28.4518845 34.1690839 27.7863226 34.3242467 27.1491127 34.4479668 26.4842596 34.478726 25.8201153 34.478726 25.1552622 34.5088016 24.9610514 34.5710034 24.7668406 34.879962 24.4620572 35.4056016 23.9914149 35.4985626 23.8531992 35.59084 23.6859227 35.6222827 23.5200638 35.6222827 23.354205 35.4678035 22.4398548 35.2818815 21.4978615 35.0351248 20.5835113 34.787001 19.6968042 34.69404 19.3374433 34.6632809 18.9490217 34.69404 18.5606001 34.7562418 18.173596 34.9421638 17.564738 35.0652004 16.9275281 35.0959595 16.5391065 35.0036821 16.1790368 34.8184437 15.8466102 34.5402443 15.56947 34.2312857 15.3199729 34.1068821 15.2370434 34.0453638 15.0981189 34.0139211 14.960612 34.0139211 14.8216875 34.0761229 14.6274766 34.1690839 14.4332658 34.5088016 13.8244078 34.5710034 13.6025539 34.5710034 13.3806999 34.478726 13.1042685 34.3550059 12.8547714 34.199843 12.4947017 34.0761229 12.10628 34.0453638 11.8574917 34.1068821 11.6356378 34.292804 11.2479249 34.4479668 10.8871465 34.5710034 10.5830719 34.7254827 10.3059316 34.879962 10.0564345 35.0652004 9.80764619 35.6530419 9.1427931 35.8382803 8.893296 35.9927596 8.61544695 36.0549614 8.31137235 36.085037 8.00658895 36.1164797 7.78544379 36.177998 7.53523789 36.270959 7.34173587 36.4261218 7.14823385 36.9825206 6.59395335 37.5696785 6.12260228 38.1260773 6.06731599 38.6209579 5.90145712 38.6817926 5.62431687 38.7132353 5.34788542 38.5279969 5.1529658 38.3113158 4.98639813 37.5389194 4.93111184 37.2600365 4.9034687 36.9825206 4.79289611 36.8280413 4.65397159 36.7350803 4.46117837 36.6728785 3.90689787 36.6728785 3.57447133 36.6113602 3.24204478 36.4876401 3.02089962 36.270959 2.8819751 35.0351248 2.2724083 33.8293662 1.57920327 32.6851259 0.832129553"></polygon>
                            <polygon id="Fill-2" points="11.8901096 1.975 11.5435182 2.19675393 11.2276108 2.4744777 10.9444798 2.75078452 10.6292698 2.99946065 10.3761256 3.05543049 10.124376 3.0823527 9.68224528 3.41533783 9.17735147 3.66472244 8.64177351 3.83050653 8.10549819 3.91410706 5.8348708 3.9969991 5.29859548 4.07989115 4.76301752 4.21804455 4.25742635 4.38382864 3.75253254 4.63392173 3.34248067 4.85496718 2.90104727 5.04909043 2.01818048 5.32539725 1.6402075 5.35373641 1.26153714 5.32539725 1.04116913 5.32539725 0.85148527 5.38136709 0.662498777 5.46425913 0.472814916 5.60241254 0.188986493 5.907767 0 6.24004365 0.031381521 6.43345842 0.126223451 6.57161183 0.504196437 6.59995099 0.914248312 6.54398115 1.35568171 6.4610891 1.82919399 6.43345842 2.05025937 6.4610891 2.23994323 6.51705895 3.15419154 6.82099644 4.09982138 7.07038106 5.04614858 7.29213499 5.99247578 7.43028839 7.09640795 7.70730369 7.47438093 7.90142694 7.79028825 8.15010307 8.0734193 8.48237973 8.26310316 8.84299554 8.51624743 9.45087054 8.54762895 9.78385567 8.48416854 10.0885016 8.26310316 10.7261328 8.23172164 10.8919168 8.23172164 11.0307787 8.26310316 11.1965628 8.32656357 11.3347162 8.51624743 11.5557617 8.73591808 11.7222542 9.49325878 12.1933928 9.74570569 12.4704081 9.84054762 12.6638229 9.90331066 12.8572376 10.0609156 13.4112682 10.2499021 13.9929295 10.3761256 14.6029299 10.3447441 14.9344981 10.3126652 15.2391441 10.1864417 15.5154509 10.124376 15.765544 10.124376 16.3188661 10.3126652 17.232804 10.2812836 17.7032341 10.1557576 18.1474504 9.87192914 18.8389259 9.61878487 19.5587406 8.73591808 23.629661 8.67315504 24.4607069 8.73591808 24.7646444 8.83076001 25.0692904 8.95698346 25.3732279 9.1152858 25.6502431 9.61878487 26.398397 10.0922972 27.173473 10.3447441 27.782765 10.502349 28.4473183 11.1648478 30.6074708 11.7638862 32.7945455 11.8587281 33.5150687 11.8266492 34.2065442 11.8266492 34.954698 11.8587281 35.3138969 11.95357 35.6752212 11.9849516 35.8962666 11.9849516 36.1173121 11.95357 36.339066 11.8901096 36.5324808 11.6062812 37.3918658 11.5435182 37.6681726 11.5114393 37.9451879 11.6062812 38.195281 11.7318073 38.3879873 12.0163331 38.720264 12.2060169 39.107802 12.331543 39.5236792 12.3950034 39.9388479 12.5205295 41.7107539 12.7102134 42.8181066 12.7736738 43.3168758 12.7415949 43.815645 12.6788318 44.3420449 12.5839899 44.812475 12.3950034 45.3112442 12.2060169 45.7540436 11.95357 46.196843 11.6697416 46.6127202 11.3224528 47.1384116 11.0386244 47.7200729 10.8810194 48.3569955 10.7861774 48.965579 10.8810194 49.2433027 11.0707032 49.4926873 11.7318073 50.0460095 11.95357 50.2670549 12.111175 50.517148 12.1746354 50.8487162 12.1432539 51.1809928 11.9214911 51.984408 11.8587281 52.1785313 11.8587281 52.371946 11.8901096 52.5660693 11.95357 52.7587756 12.1746354 53.1746528 12.4263849 53.59053 12.5839899 53.8944674 12.6788318 54.1998219 12.6788318 54.4768372 12.5839899 54.7255133 12.3950034 55.1130513 12.3001615 55.5289285 12.3001615 55.9717279 12.3950034 56.3868966 12.7415949 57.3837266 13.1837257 58.3252952 13.4989356 59.3773865 13.7506851 60.4571085 13.9396716 61.5651697 14.0345136 62.6448917 14.1293555 63.8082143 14.3190393 64.9431976 14.5714862 66.0788895 14.8866962 67.2138729 15.2332877 67.9889489 15.5484976 68.3495647 15.8016419 68.9857789 15.9585495 69.540518 15.8964838 70.1214707 15.8644049 70.703132 16.1482333 71.6170699 16.7472717 72.0875 16.6524298 71.6170699 16.5575878 70.9801473 16.7786532 70.4813781 17.1259421 69.8168248 17.0311001 69.3740254 16.6838113 69.0417487 16.5575878 68.7378112 16.3686014 68.4600875 16.1482333 67.5192273 16.1482333 67.1862422 16.1168518 66.8263349 16.0533914 66.4940582 15.9585495 66.1617815 15.8330234 65.4979367 15.8330234 64.8333834 15.9585495 63.9739984 16.0220099 63.1160303 16.0533914 62.2573537 16.0220099 61.3993856 15.9585495 60.1248319 15.9585495 58.8509866 16.0847729 57.5495107 16.2737594 56.3040046 16.4627459 55.362436 16.4941274 54.8920059 16.4941274 54.3932367 16.4627459 53.9220981 16.4006802 53.4523765 16.3051409 52.9819465 16.1482333 52.5377301 16.0220099 52.0956392 15.8964838 51.6245007 15.8016419 51.1533621 15.769563 50.6829321 15.769563 49.7413635 15.8330234 49.2709334 15.927168 48.8274256 16.3686014 47.4983189 17.220784 44.1762608 17.5352966 43.1787224 17.7877435 42.1542617 17.8198224 41.8772464 17.8198224 41.5726005 17.7877435 41.2955852 17.6929015 41.0192784 17.5666781 40.7698937 17.4097705 40.5481398 17.1887051 40.3263859 16.9676397 40.1598933 16.8107321 39.9941092 16.7158902 39.8276167 16.6838113 39.5513098 16.7472717 39.3026337 16.9997186 38.7486031 17.1887051 38.4163265 17.283547 38.0287884 17.3156259 37.7786954 17.220784 37.5016801 17.0624816 37.2253732 16.9676397 36.8938051 16.8421136 36.2285433 16.8421136 35.8962666 16.8734952 35.56399 16.9676397 35.2310048 17.0624816 34.9270673 17.3470074 34.2618055 17.6301385 33.6255914 17.9774273 32.9879603 18.3247162 32.3800853 18.3874792 32.2135927 18.4509396 32.0194695 18.4509396 31.8260547 18.4195581 31.6595621 18.2926373 31.2713156 18.1029534 30.9397475 17.3470074 29.8600254 17.1573236 29.5830101 17.0311001 29.3067033 16.9369556 29.0006404 16.8734952 28.6967029 16.8107321 28.3091649 16.6838113 27.8939962 16.3686014 27.1189201 15.9906284 26.3424271 15.8330234 25.9832283 15.7381815 25.5680596 15.7067999 25.1798131 15.7381815 24.7646444 15.769563 24.404737 15.769563 24.0448297 15.6433395 23.0756304 15.4536557 22.1340618 15.3595111 21.6360011 15.3281296 21.1648625 15.39159 20.693724 15.4850372 20.2232939 15.8016419 19.5587406 16.1796149 18.921818 16.4627459 18.3961265 16.7158902 17.8690182 16.8734952 17.315696 16.9676397 16.7340348 16.6524298 16.5129893 16.0220099 16.3188661 15.8644049 15.7931747 15.8016419 14.9621288 15.8016419 14.1034522 15.8330234 13.2731148 15.8964838 12.4151467 16.0847729 11.8611161 16.2737594 11.6386537 16.4941274 11.4459474 17.0624816 11.0307787 17.66152 10.6977936 17.9774273 10.5036703 18.2612558 10.2542857 18.3874792 10.060871 18.4195581 9.83982551 18.4195581 9.4792097 18.3874792 9.14693304 18.3247162 8.70484214 18.3247162 8.26133427 18.3874792 7.98431898 18.4823211 7.76256505 18.6399261 7.5415196 18.8602941 7.37502703 18.7968337 7.15398158 18.7340707 6.95914985 18.2926373 6.3229357 18.2612558 6.15644313 18.3560977 5.99065904 18.4195581 5.907767 18.4509396 5.82487495 18.4509396 5.71435223 18.3874792 5.6307517 18.1977953 4.99382907 17.9139669 4.10752183 17.7249804 3.71998381 17.5666781 3.55349124 17.378389 3.41533783 14.160737 3.36007647 13.625159 3.1666617 13.0888837 2.86130724 12.6153714 2.50139991 12.2367011 2.05860052 12.0797935 1.975"></polygon>
                            <polygon id="Fill-3" points="46.3388166 2.44502962 45.8889397 2.77652419 45.4390629 2.88678678 44.8925301 3.10801876 44.346708 3.43880653 44.2173596 3.77100791 44.0574507 4.07493684 43.8641387 4.37815895 43.638845 4.65452223 43.0923122 5.12455185 42.7717838 5.31751138 42.4498341 5.48290526 41.5500805 5.84267229 40.6496161 6.17487367 39.7178807 6.4229645 38.7541636 6.61592402 38.4641956 6.67176213 38.1422458 6.7813179 37.8536993 6.91985295 37.5964237 7.08524683 37.37113 7.27891317 37.1465469 7.50014515 36.9532349 7.74894279 36.8245972 8.02530607 36.7279412 8.41122512 36.8885607 8.52219452 37.0498909 8.60559827 38.3995214 8.60559827 38.8820906 8.71586086 39.0434209 8.77169896 39.2033297 8.88125474 39.589243 9.15761802 40.007138 9.35057755 40.4897073 9.48911259 40.9708552 9.51597143 42.8677291 9.54424389 43.4142619 9.57180953 43.9607947 9.73791023 44.4426533 9.95914221 44.8925301 10.2906368 45.2137692 10.6765558 45.4390629 11.1458786 45.5677007 11.6441807 45.6316642 12.1410692 45.6316642 12.7764927 45.5996825 13.4394818 45.5357189 14.0749053 45.4070812 14.709622 45.4070812 14.9866921 45.4390629 15.2630554 45.6643567 16.0631659 45.6643567 16.340236 45.5677007 16.644165 45.4390629 16.9198214 45.3431176 17.2244572 45.2784434 17.5283861 45.2784434 18.0252746 45.4070812 18.3567691 45.6643567 18.6331324 45.7283202 18.7709606 45.760302 18.9363545 45.760302 19.1024552 45.6316642 19.3788185 45.4717554 19.6551818 44.4106716 20.8150594 44.0574507 21.2575233 43.9927765 21.423624 44.025469 21.6165836 44.153396 21.8102499 44.3140156 21.9756438 44.7311999 22.4456734 44.8285666 22.6110673 44.8925301 22.777168 44.9252226 23.2740564 44.9252226 23.7716517 44.8605484 24.2961058 44.7311999 24.7661354 44.6032728 25.2630239 44.5393093 25.7323467 44.4746351 26.2299419 44.4426533 26.6992647 44.5393093 27.3346882 44.6992181 27.9425461 44.9252226 28.5228383 45.2457509 29.0755649 45.8242655 30.0976142 46.371509 31.1196636 46.4674543 31.4235925 46.5321286 31.7543803 46.5321286 32.059016 46.4674543 32.3905106 45.9855957 33.9101552 45.8889397 34.2416498 45.856958 34.5724376 45.8242655 34.9322046 45.856958 35.2636992 45.8889397 35.6220526 45.9529033 35.954254 46.0495593 36.2857485 46.178197 36.5889706 46.5001468 37.3353635 46.7574223 38.0810496 46.9493129 38.8274425 47.0779507 39.6289667 47.1746066 40.6785817 47.1426249 41.7550556 47.0459689 42.8322362 46.8533676 43.8825581 46.7901148 44.4897091 46.7901148 45.6778592 46.8533676 46.285717 46.9173311 46.866716 46.9173311 47.4731603 46.8853494 48.0810181 46.7901148 48.688876 46.5321286 49.3801376 46.2108895 50.0706924 46.0175775 50.4566114 45.8889397 50.8715097 45.8242655 51.3139737 45.8242655 51.7557309 45.9209215 52.2526193 46.3068348 53.2478099 46.371509 53.7998296 46.3388166 54.0761929 46.3068348 54.3249905 46.2428713 54.6013538 46.1462153 54.8501514 45.6643567 55.8170695 45.1505164 56.7557151 45.0211679 57.0603509 44.9891861 57.4187043 45.0211679 57.7501988 45.0858421 58.0816934 45.3750994 58.7722482 45.6963385 59.4352373 45.8242655 59.7950044 45.9209215 60.1533578 45.9855957 60.5406905 46.0175775 60.8997507 45.9855957 61.1754072 45.9209215 61.4242048 45.6643567 62.8611525 45.6643567 63.3580409 45.5996825 63.8549294 45.5996825 64.103727 45.5677007 64.3532315 45.5996825 64.6013223 45.6643567 64.8225543 45.8242655 65.6516441 45.9529033 66.4800271 46.0495593 67.3084102 46.0822517 68.1375 46.371509 67.8335711 46.6607663 67.5847734 46.8533676 67.1705819 47.1426249 66.8115217 46.9173311 66.4248958 46.7901148 66.0375632 46.7574223 65.5965128 46.7901148 65.1816145 47.1746066 64.186424 47.6251942 63.1926471 48.171727 62.2532946 48.7495308 61.3415078 49.0387881 60.373883 49.3287561 59.9879639 49.5533392 59.6006312 49.7459405 59.1595809 49.8745782 58.7171169 49.3287561 56.921109 49.2640819 56.4242205 49.2640819 55.4297368 49.2967744 54.9328484 49.3934304 54.4352531 49.5206467 53.9376578 49.6492845 53.468335 49.8425965 52.9983054 49.9072707 52.6392452 49.9072707 52.2808918 49.8425965 51.9218316 49.7459405 51.5896302 49.1681366 50.1258237 49.1034624 49.9045917 49.0714806 49.6840665 49.0714806 49.4635413 49.1354441 49.2416025 49.3614486 48.7171484 49.6812662 48.2195532 50.0671795 47.6116953 50.3891293 46.9769786 50.4538035 46.6172116 50.4857853 46.2305857 50.4218217 45.8446667 50.3251657 45.457334 49.5853209 43.6337604 49.4566832 43.1920033 49.4247014 42.7495393 49.4566832 42.2802165 49.5533392 41.8377525 49.8425965 41.5062579 50.3571475 40.7330062 50.5817306 40.3188147 50.8063136 39.8770575 50.9676438 39.462866 51.1602451 38.8274425 51.2569011 38.1913122 51.3535571 37.6668581 51.4502131 37.1148384 51.4502131 36.5338393 51.4175206 35.9818196 51.3208647 35.4566587 51.1922269 34.9039321 50.9996256 34.379478 50.7430608 33.8818828 49.7139587 32.3078137 49.4886649 31.8929153 49.3287561 31.4511582 49.2967744 30.9811285 49.2967744 30.5118057 49.4247014 29.8770891 49.6173027 29.2409587 49.8106147 28.5504039 50.0039267 27.8322835 50.196528 26.3960426 50.1318537 26.2299419 50.0039267 26.0921137 49.5533392 25.7323467 49.3287561 25.5393871 49.1681366 25.3181552 49.2001184 24.6834385 49.2967744 23.9094799 49.3614486 23.1355214 49.3287561 22.3629765 49.2640819 21.5614523 49.2321001 21.285089 49.2321001 21.0087257 49.3287561 20.6220998 49.4566832 20.2630396 49.6173027 19.9039794 50.1638355 18.964627 50.4218217 18.3284967 50.8063136 16.7544276 51.2569011 15.2079241 51.3855389 14.9032883 51.5461584 14.6551975 52.2206183 13.9095114 52.3819485 13.7158451 52.4786045 13.4946131 52.5105863 13.2458155 52.5105863 12.6662301 52.5752605 12.3340287 52.6704951 12.0300998 52.8318253 11.7544433 53.6029412 10.4001926 53.4103399 10.1521017 53.1850461 9.90330411 52.9931555 9.73791023 52.8318253 9.51597143 52.8645178 9.18518367 52.9284813 8.85368909 53.0571191 8.30096253 53.0898115 7.74894279 53.0898115 7.5828421 53.0571191 7.4167414 52.9604631 7.25134752 52.8645178 7.11281248 52.6704951 6.9474186 52.4466227 6.80959036 52.124673 6.64348967 51.8354157 6.4229645 51.7714522 6.22929816 51.7714522 6.00806617 51.9320717 5.6765716 52.028017 5.40020832 52.0926912 5.12455185 51.8681082 5.04185491 51.7067779 4.95845116 51.5141766 4.82062292 51.3535571 4.65452223 51.1275527 4.3505933 50.6783866 3.68760416 50.5497488 3.52291709 50.4218217 3.41124088 50.2604915 3.32854394 50.0671795 3.27341265 49.2321001 3.1348776 48.4275811 2.94191807 48.0103967 2.80408984 47.6251942 2.58285785 47.3032444 2.30720138 47.0459689 1.975"></polygon>
                        </g>
                        <g id="ford" transform="translate(326.084559, 18.268750)">
                            <path d="M2.63385697,20.820699 C2.63385697,10.8088815 26.0408442,2.65492713 54.8440826,2.65492713 C83.7175984,2.65492713 107.089737,10.8088815 107.089737,20.820699 C107.089737,30.8667312 83.7175984,38.917471 54.8440826,38.917471 C26.0408442,38.917471 2.63385697,30.8667312 2.63385697,20.820699 Z M0.496497771,20.820699 C0.496497771,31.9673069 24.8141859,40.981193 54.8440826,40.981193 C84.8391311,40.981193 109.156819,31.9673069 109.156819,20.820699 C109.156819,9.67409104 84.8391311,0.625419912 54.8440826,0.625419912 C24.8141859,0.625419912 0.496497771,9.67409104 0.496497771,20.820699 Z" id="Fill-1"></path>
                            <path d="M76.5532683,22.2296794 C75.3026182,22.107169 73.7304231,23.0267591 72.4448353,24.3769145 C71.8017454,25.0514839 71.1225334,26.3396217 71.0153517,27.1062009 C70.8726403,27.8732885 71.1225334,28.6393594 71.4440784,28.8543879 C71.7656234,29.0689081 73.1945148,29.7134853 75.4097998,27.7807703 C76.6604499,26.7076611 77.8743859,24.9594741 77.8743859,24.9594741 L77.4817812,24.8669559 C78.2320529,23.6713363 78.0893414,22.3831985 76.5532683,22.2296794" id="Fill-4"></path>
                            <path d="M50.4519889,15.8006313 C50.7335552,15.6152635 51.2025731,15.0606921 51.1092362,14.6914885 C51.0625678,14.5061207 50.9217846,14.2906243 50.5935499,14.3217742 C49.8888563,14.4142028 49.4665069,14.6296992 49.2790553,15.0913314 C49.0441574,15.5846242 49.1382721,15.9231885 49.2790553,16.2934135 C49.2790553,16.2934135 49.7480732,16.3240528 50.4519889,15.8006313" id="Fill-6"></path>
                            <path d="M78.3611122,28.7153183 C79.8696079,28.6464017 82.6395432,25.8053165 83.3063041,25.1121307 C83.4463995,24.9386907 83.692293,24.6268433 83.8323884,24.6268433 C83.9724837,24.6268433 84.2532558,24.7652507 84.2532558,24.973149 C84.2532558,25.1121307 83.9376052,25.6318765 83.692293,25.9437239 C82.2895954,27.6758268 79.9742434,30.3440463 77.3444035,30.4135372 C76.0469228,30.4135372 75.5557171,29.8937915 75.3801619,28.8887583 C74.7843206,29.408504 72.7503219,30.3090138 70.6808635,30.3090138 C68.9625153,30.2751298 68.2608759,29.2700966 67.9097655,28.4729617 C67.5946963,27.8148086 67.4540196,26.8442336 67.6999132,25.874233 C66.7523802,26.3589462 65.8757669,26.4290114 64.613746,26.3939788 C63.1401288,26.3589462 62.228637,25.7013673 61.7734724,24.0031484 C60.0894215,27.0521319 60.0190831,27.1560811 58.300735,30.3440463 L55.3192034,30.3440463 L59.1418885,23.9342319 C59.6330942,23.0676061 59.8789878,22.3744203 60.054543,21.6467763 C60.1591785,21.231554 59.8441093,20.8502157 59.387782,20.8157575 C58.8971576,20.8157575 58.0908826,21.3004706 57.3189049,22.0281146 C57.3189049,22.0281146 55.3546632,24.1070976 53.9170872,26.2205388 C52.5492681,28.2300308 50.1996189,30.5174864 47.6389547,30.5174864 C45.7805112,30.5174864 44.0970416,29.5124532 43.7465126,27.572452 C43.7465126,27.572452 43.5709574,28.0227068 41.9223663,28.9582492 C41.7822709,29.0271657 41.4317419,29.235064 41.3271063,29.1661475 C41.0108745,28.8887583 40.8353193,28.5424526 40.8004408,28.2995217 C40.9050763,28.3345543 41.1160913,28.1611143 41.7822709,27.6413685 C43.0797517,26.6707936 43.3605237,25.9086913 43.3605237,25.9086913 C43.6761742,25.2505382 44.2377183,24.2110467 44.6231259,23.4834027 C45.6752944,21.4049941 47.4988593,19.2909785 50.4798096,19.1870294 C50.9710154,19.1870294 51.1111107,19.3949277 51.2163276,19.5677934 C51.4970996,19.776266 51.3918828,20.1914883 51.3918828,20.1914883 C49.2875458,20.5033357 47.8499697,21.7162672 46.9727751,22.8941661 C46.4472721,23.6562684 45.8857281,24.9042325 45.7805112,25.8053165 C45.5700775,27.3639794 46.3065955,28.4034708 47.3936425,28.6464017 C49.4276411,28.9582492 51.1111107,27.5029611 52.4440513,25.2505382 C52.7945803,24.6613016 53.0404739,23.137097 53.0404739,22.3055038 C53.0404739,21.4739106 52.5841466,20.6078592 52.2341989,20.2609791 C52.2341989,19.6723168 52.6190251,19.2909785 53.0747711,19.2909785 C53.2154477,19.2909785 53.3555431,19.2909785 53.4962198,19.4299603 C54.1972779,20.1225717 54.5832668,21.4394523 54.5832668,22.4439112 C54.5832668,22.7907912 54.5832668,23.137097 54.5129284,23.4834027 C55.9859643,21.7162672 57.8444078,19.4299603 59.2825652,18.9791311 C59.5639185,18.8407237 59.8441093,18.8407237 60.1243,18.8407237 C62.7547212,18.7718071 62.4041922,21.1270306 62.4041922,21.1270306 C63.8068897,19.5333351 64.7887199,18.9440985 66.0862006,19.0135894 C67.4894795,19.0836546 67.9806852,20.0536552 67.9806852,20.8157575 C67.9452254,21.7162672 67.2790458,22.7557587 66.1216604,22.7907912 C65.1043704,22.7907912 64.5085292,22.3055038 64.1922973,21.4049941 C63.5261177,21.6467763 63.2110484,22.0976055 63.0703718,22.9986895 C62.8599381,24.1415558 63.7365514,25.0426399 64.8584769,25.0426399 C66.78784,25.0426399 67.6301561,24.2110467 68.3312143,23.5873518 C70.715742,21.3699615 72.0486825,19.048622 75.4853787,19.0836546 C77.5542559,19.1181128 78.0809214,20.7462666 78.4314505,21.4394523 L82.9551937,13.8856229 L85.7262916,13.8856229 L78.2210168,27.0176737 C78.0809214,27.2944885 77.7298111,27.8148086 77.7652709,28.2300308 C77.8356092,28.8887583 78.6767627,28.7153183 78.3611122,28.7153183 M30.2787558,30.5519446 C27.2280485,30.5519446 24.5272889,28.5769109 24.4569506,25.0426399 C24.4220721,22.8941661 26.17588,20.2609791 29.437021,19.4644186 C29.8230099,19.4644186 29.9636866,19.602826 29.9636866,19.8107243 C29.9636866,19.9491317 29.8230099,20.1225717 29.5073594,20.2609791 C28.5604077,20.6078592 26.9123979,22.4439112 26.9123979,24.1415558 C26.9123979,25.4239782 27.7186729,26.8442336 29.086492,27.1560811 C29.4724808,27.2606045 29.8230099,27.225572 30.173539,27.225572 C33.575938,27.225572 37.3986231,23.4489444 41.5363774,17.6967088 C40.8701978,17.7317413 38.0299242,18.0435888 37.3282847,18.8407237 C37.0126342,19.0836546 36.8022005,18.9440985 36.7318622,18.6672837 C36.7318622,18.5977928 36.837079,18.3554362 36.9428772,18.2170288 C38.0648027,16.969639 41.4317419,16.6916756 42.2380169,16.5883007 C45.2608214,12.0099439 49.110828,9.09075318 50.1722974,8.88055767 C50.1473011,8.87538893 50.118817,8.86677436 50.0949834,8.86160562 C47.3936425,8.23791074 44.9387764,7.718165 43.0099946,7.718165 C36.2406564,7.718165 33.2248276,10.5942828 33.3655043,13.2268955 C33.4352613,14.3014195 34.3118746,14.9946053 35.6099366,14.7522487 C37.0126342,14.5093178 38.9768758,13.1930115 39.4675002,12.0489966 C39.5727171,11.8072143 39.8534891,11.7721817 39.958706,11.8416726 C40.1691397,12.0145383 40.0988013,12.2574692 40.0988013,12.2574692 C39.9232462,13.6082338 37.8194905,17.350403 34.1717793,17.350403 C32.1377806,17.350403 30.7699616,15.4793184 30.8048401,13.6432664 C30.8402999,10.2129445 34.382213,6.74816441 43.1152115,6.74816441 C44.7632212,6.74816441 46.6216647,6.88599753 48.656826,7.23287755 C51.0058939,7.64867414 56.863159,8.61924904 61.6327957,8.68873991 C63.3860223,8.68873991 65.631036,8.75765647 67.4540196,8.48026731 C69.3833827,8.16841987 68.9625153,8.09950331 69.7339118,8.09950331 C70.4349699,8.09950331 70.4349699,8.37631816 70.4349699,8.65370732 C70.4349699,9.76211535 66.507068,11.8761309 63.1755886,11.8761309 C58.2664378,11.8761309 53.1718496,9.67769256 50.5280582,8.9701492 C50.6292059,9.06433517 50.7012882,9.2159516 50.619905,9.41638393 C50.5850265,9.48530049 50.2344974,9.8666388 50.0949834,9.97058795 C49.3927626,10.5942828 47.0076536,12.1190617 44.4126922,16.4498933 C46.5170292,16.3459442 48.9718952,15.9301476 48.9718952,15.9301476 C48.9718952,15.9301476 48.8317999,15.4793184 48.8317999,15.0979801 C48.9364354,13.6082338 49.81363,12.707724 50.9355556,12.881164 C51.567438,12.9845389 51.987724,13.5048589 51.987724,14.0590629 C51.987724,14.6482995 51.5325594,15.514351 51.0756509,15.9301476 C50.7605817,16.1725041 50.4100526,16.4148607 49.9886039,16.622759 C49.9886039,17.003523 50.5152695,17.3153705 50.9710154,17.350403 C50.8657985,17.7317413 50.900677,17.9051814 50.7251219,17.8701488 C49.6729534,17.8701488 49.2526673,16.8656899 49.2526673,16.8656899 C47.8499697,17.1080465 46.4821507,17.2814865 43.7110527,17.5583013 C36.7318622,28.7153183 34.5571868,30.5519446 30.2787558,30.5519446 M4.46691176,20.2265209 C4.46691176,29.5124532 27.0873718,37.03125 55.0738912,37.03125 C83.0255321,37.03125 105.716912,29.5124532 105.716912,20.2265209 C105.716912,10.9750468 83.0255321,3.45625 55.0738912,3.45625 C27.0873718,3.45625 4.46691176,10.9750468 4.46691176,20.2265209 Z" id="Fill-8"></path>
                        </g>
                        <g id="walmart" transform="translate(493.841912, 24.687500)">
                            <path d="M101.709735,9.75380495 C102.358926,9.75380495 102.893367,9.40447682 102.965433,8.95207839 L103.607279,1.43926068 C103.607279,0.696784115 102.767698,0.0865914063 101.71172,0.0865914063 C100.65733,0.0865914063 99.8193375,0.696784115 99.8193375,1.43926068 L100.459396,8.95207839 C100.530271,9.40447682 101.065308,9.75380495 101.712117,9.75380495 L101.709735,9.75380495 Z" id="Fill-1"></path>
                            <path d="M98.5306549,11.1786485 C98.8670399,10.6680484 98.8410064,10.0935557 98.4869925,9.83888741 L92.3340788,6.03943843 C91.6949269,5.71347743 90.735174,6.10585794 90.1905214,6.93682384 C89.644434,7.76706779 89.7413932,8.69477516 90.3803401,9.02019469 L97.1924946,11.8132436 C97.6190742,11.9527607 98.1987797,11.6854582 98.5331148,11.1750387 L98.5306549,11.1786485 Z" id="Fill-4"></path>
                            <path d="M106.028146,11.9835216 C106.353139,12.558479 106.912793,12.8595793 107.325735,12.7024216 L113.924257,9.55621757 C114.545654,9.18965176 114.634992,8.14464441 114.109683,7.20942382 C113.580007,6.27339 112.649499,5.83139662 112.031477,6.19857235 L106.072418,10.4784264 C105.731543,10.7652951 105.70633,11.4124271 106.030529,11.9875878 L106.028146,11.9835216 Z" id="Fill-6"></path>
                            <path d="M102.239838,17.775 C102.750208,17.775 103.170366,18.130051 103.227022,18.5921008 L103.731618,26.268055 C103.731618,27.0281878 103.07157,27.65 102.241398,27.65 C101.412476,27.65 100.753676,27.0281878 100.753676,26.268055 L101.256867,18.5921008 C101.312587,18.130051 101.733213,17.775 102.241711,17.775 L102.239838,17.775 Z" id="Fill-9"></path>
                            <path d="M106.028146,15.7516648 C106.353139,15.1756909 106.912793,14.8764203 107.325735,15.0358144 L113.924257,18.1781556 C114.545654,18.5463479 114.634992,19.5919651 114.109683,20.5277957 C113.580007,21.4609832 112.649499,21.904603 112.031477,21.5384438 L106.072418,17.2616394 C105.731543,16.9715177 105.70633,16.3249957 106.030529,15.7504449 L106.028146,15.7516648 Z" id="Fill-11"></path>
                            <path d="M98.5306549,16.4722155 C98.8670399,16.9825236 98.8410064,17.5563719 98.4869925,17.8141434 L92.3340788,21.6112181 C91.6949269,21.9363206 90.735174,21.5424429 90.1905214,20.7140723 C89.644434,19.882994 89.7413932,18.9546197 90.3803401,18.627712 L97.1924946,15.837715 C97.6190742,15.696374 98.1987797,15.9619074 98.5335247,16.4732986 L98.5306549,16.4722155 Z" id="Fill-14"></path>
                            <path d="M64.7896219,17.4190261 C64.7896219,17.6284737 64.7711883,17.8442568 64.714413,18.0328342 C64.4795695,18.818449 63.674576,19.4825692 62.6681038,19.4825692 C61.8288239,19.4825692 61.1622665,19.0010634 61.1622665,17.9825221 C61.1622665,16.4250818 62.8585224,15.9942608 64.7896219,16.0046959 L64.7896219,17.4190261 Z M67.8189927,14.7051519 C67.8189927,12.1353195 66.7332562,9.875 63.0642409,9.875 C61.1803314,9.875 59.6850012,10.4099858 58.8689476,10.8860877 L59.4663792,12.9513079 C60.2118323,12.4759514 61.4006124,12.0822123 62.5252437,12.0822123 C64.3862957,12.0773674 64.6917397,13.1469663 64.6917397,13.8328884 L64.6917397,13.9951917 C60.6337764,13.9890424 58.0698529,15.4085902 58.0698529,18.30247 C58.0698529,20.0693579 59.3756861,21.725 61.6459631,21.725 C63.0419363,21.725 64.2102552,21.1618767 64.9090714,20.2596123 L64.9781972,20.2596123 C64.9781972,20.2596123 65.4418012,22.219177 67.9963235,21.4697125 C67.8621272,20.6540968 67.8189927,19.7846284 67.8189927,18.7372042 L67.8189927,14.7051519 Z" id="Fill-16"></path>
                            <path d="M0.496283824,6.06915002 C0.496283824,6.06915002 3.35133529,17.9888818 3.80696029,19.9236917 C4.33862206,22.1817116 5.29732059,23.0125917 8.06005588,22.4523342 L9.84304853,15.0615868 C10.2947029,13.226086 10.5980559,11.9176723 10.8885044,10.0504169 L10.939725,10.0504169 C11.1438132,11.9360779 11.4344603,13.2317493 11.8063059,15.0684636 C11.8063059,15.0684636 12.5321294,18.4229297 12.9035779,20.1850104 C13.2764162,21.9466866 14.3131368,23.0564819 17.0194897,22.4523342 L21.2676221,6.06915002 L17.8378279,6.06915002 L16.3873721,13.1522615 C15.9974603,15.2138878 15.6440779,16.8250833 15.3711,18.7111488 L15.3224603,18.7111488 C15.0742985,16.8432866 14.7590338,15.2964095 14.3625706,13.2879773 L12.8523574,6.06915002 L9.27902647,6.06915002 L7.66379118,13.1059441 C7.20618088,15.2442267 6.77815147,16.9707098 6.50596765,18.7928615 L6.45693088,18.7928615 C6.17799706,17.0770981 5.80654853,14.9070609 5.404725,12.8373441 C5.404725,12.8373441 4.44483529,7.80412803 4.10812941,6.06915002 L0.496283824,6.06915002 Z" id="Fill-18"></path>
                            <path d="M28.061746,17.4190261 C28.061746,17.6284737 28.0438648,17.8442568 27.9865343,18.0328342 C27.751682,18.818449 26.9466587,19.4825692 25.9403334,19.4825692 C25.1010224,19.4825692 24.4346245,19.0010634 24.4346245,17.9825221 C24.4346245,16.4250818 26.1307591,15.9942608 28.061746,16.0046959 L28.061746,17.4190261 Z M31.0906763,14.7051519 C31.0906763,12.1353195 30.0050838,9.875 26.3364853,9.875 C24.4519527,9.875 22.9561983,10.4099858 22.1410362,10.8860877 L22.7375682,12.9513079 C23.4839707,12.4759514 24.6718732,12.0822123 25.796915,12.0822123 C27.6595108,12.0773674 27.9642288,13.1469663 27.9642288,13.8328884 L27.9642288,13.9951917 C23.9055618,13.9890424 21.3419118,15.4085902 21.3419118,18.30247 C21.3419118,20.0693579 22.6468718,21.725 24.9163113,21.725 C26.3130738,21.725 27.481436,21.1618767 28.1815685,20.2596123 L28.2501439,20.2596123 C28.2501439,20.2596123 28.7139495,22.219177 31.2683824,21.4697125 C31.1341811,20.6540968 31.0906763,19.7846284 31.0906763,18.7372042 L31.0906763,14.7051519 Z" id="Fill-21"></path>
                            <polygon id="Fill-23" points="36.2316176 18.3703698 36.2316176 5.925 33.2536765 5.925 33.2536765 21.725 36.2316176 21.725"></polygon>
                            <path d="M78.9154412,5.925 L78.9154412,18.1032795 C78.9154412,19.7820091 79.2180612,20.9585669 79.8646386,21.6771781 C80.4299063,22.3057082 81.360385,22.7125 82.4759064,22.7125 C83.4239339,22.7125 84.3569474,22.5245932 84.7966435,22.3531944 L84.7553062,19.7339115 C84.4281177,19.8178786 84.0519875,19.8853375 83.5370265,19.8853375 C82.4447085,19.8853375 82.0783277,19.1536829 82.0783277,17.646352 L82.0783277,12.9874035 L84.8713235,12.9874035 L84.8713235,9.82865268 L82.0783277,9.82865268 L82.0783277,5.925 L78.9154412,5.925 Z" id="Fill-25"></path>
                            <path d="M69.9816176,10.1364755 L69.9816176,21.725 L73.2894108,21.725 L73.2894108,15.7912397 C73.2894108,15.470918 73.3090989,15.1917315 73.3609507,14.9359692 C73.6057847,13.6927705 74.5788829,12.8982507 75.9755673,12.8982507 C76.3589977,12.8982507 76.6332663,12.9388146 76.9301471,12.9809021 L76.9301471,9.94679625 C76.6812195,9.89766248 76.5110443,9.875 76.2012981,9.875 C74.9669916,9.875 73.5627048,10.6535228 72.9734268,12.3223571 L72.8835634,12.3223571 L72.8835634,10.1364755 L69.9816176,10.1364755 Z" id="Fill-27"></path>
                            <path d="M38.2169118,10.1364755 L38.2169118,21.725 L41.4698135,21.725 L41.4698135,14.9289229 C41.4698135,14.6101247 41.5075853,14.273425 41.6224746,13.9803364 C41.8919923,13.2960819 42.5494581,12.4956584 43.5993968,12.4956584 C44.9121645,12.4956584 45.5263501,13.569936 45.5263501,15.1203161 L45.5263501,21.725 L48.7757107,21.725 L48.7757107,14.8466524 C48.7757107,14.5425182 48.8189909,14.1763001 48.9112565,13.9073975 C49.1786101,13.1290652 49.8872253,12.4956584 50.8631942,12.4956584 C52.1938641,12.4956584 52.832444,13.5510824 52.832444,15.3753166 L52.832444,21.725 L56.0845588,21.725 L56.0845588,14.8997855 C56.0845588,11.3004508 54.1965578,9.875 52.0652038,9.875 C51.1214984,9.875 50.3764885,10.1042909 49.7026942,10.5044075 C49.1365103,10.8409167 48.6295416,11.3187331 48.1865096,11.9477597 L48.1387046,11.9477597 C47.6242602,10.6988477 46.4149716,9.875 44.839375,9.875 C42.8146478,9.875 41.9047796,10.8683402 41.3529569,11.711232 L41.3047585,11.711232 L41.3047585,10.1364755 L38.2169118,10.1364755 Z" id="Fill-29"></path>
                        </g>
                        <g id="ge" transform="translate(680.955882, 0.000000)">
                            <path d="M53.5971578,25.0782909 C54.4030125,23.6768939 55.3208889,21.9322978 53.6970519,20.7433575 C53.6970519,20.7433575 49.8346943,20.1982563 49.6323529,29.625 C49.6323529,29.625 52.2461944,27.4061215 53.5971578,25.0782909" id="Fill-1"></path>
                            <path d="M20.8470078,54.6788247 C20.8470078,54.6788247 20.8058591,55.8747187 21.1666507,56.610899 C21.5274424,57.3442061 22.2914912,57.6260999 23.0005653,58.0845366 C23.0005653,58.0845366 27.3988658,60.0705633 31.3300464,50.7734936 C31.3300464,50.7734936 32.9019261,46.9572319 32.7465487,43.45 C32.7465487,43.45 21.0053479,49.0371169 20.8470078,54.6788247" id="Fill-3"></path>
                            <path d="M33.713009,22.2446392 C33.713009,22.2446392 33.9698142,21.0593019 33.1301441,20.7375 C33.1301441,20.7375 27.5891169,21.2714752 26.8014706,30.6125 C26.8014706,30.6125 33.8366069,26.032389 33.713009,22.2446392" id="Fill-5"></path>
                            <path d="M57.0063481,61.6886829 C55.4513899,62.3504314 53.669708,62.9198953 50.7501479,62.9198953 C50.7501479,62.9198953 38.2377476,61.1783842 38.9146426,49.2058166 C38.9146426,49.2058166 39.4883324,40.8130577 47.3109579,36.3081516 C47.3109579,36.3081516 46.794932,35.8956039 46.7369405,35.0782255 L35.944299,41.5243248 C35.944299,41.5243248 36.6546128,53.4821011 30.4796663,59.7908988 C29.6002925,60.6931662 28.4427563,61.3652043 27.3930121,62.1009092 C26.6584533,62.6144234 25.7374698,62.7497957 25.09727,62.9198953 C24.2627824,63.1292239 23.6884373,63.0173247 22.4925677,63.0173247 C22.4925677,63.0173247 19.4652155,63.1215067 17.7952573,59.485427 C17.7952573,59.485427 14.8766802,53.65413 20.8163844,47.6678462 C20.8163844,47.6678462 24.2627824,43.4713059 32.971662,40.6088739 L33.1295823,38.1493431 C33.1295823,38.1493431 29.9967315,40.4050116 27.9670295,39.9886052 C26.7311883,39.7442277 23.8987793,39.5812022 23.1196621,34.9737219 C23.1196621,34.9737219 18.2624656,33.3894484 17.9508842,28.4790687 C17.9508842,28.4790687 17.8984625,25.5677611 19.4029648,24.2561614 C21.7969975,22.1828114 20.6302874,25.5603655 20.6302874,25.5603655 C20.536256,27.6555809 20.7629798,31.2099871 23.2726679,31.8598383 C23.2726679,31.8598383 23.1196621,26.9919031 25.7728545,22.9545297 C25.7728545,22.9545297 30.4655779,16.192669 35.7837576,18.6544506 C35.7837576,18.6544506 40.7942875,22.3326533 33.7517621,30.0141452 C33.7517621,30.0141452 30.7240824,34.0515185 26.556231,34.9245249 C26.556231,34.9245249 27.8015736,39.9886052 33.7517621,34.0036076 C33.7517621,34.0036076 35.3299824,26.9423845 39.7039165,28.6318046 C39.7039165,28.6318046 43.138192,30.9337762 35.7837576,35.8419051 L35.6310795,38.4570658 L45.6413273,32.4190126 C45.6413273,32.4190126 45.1184211,27.2025179 46.5819689,22.7969706 C46.5819689,22.7969706 49.0851042,17.1145509 54.7174864,18.0402914 C54.7174864,18.0402914 61.4965928,21.1596414 55.0277572,28.7819681 C55.0277572,28.7819681 51.3716725,32.6235179 49.5067711,32.933813 C49.5067711,32.933813 49.8124551,34.3621351 50.5493073,34.8750063 C50.5493073,34.8750063 58.6320755,33.2383202 58.0003942,36.3081516 C58.0003942,36.3081516 58.3162348,40.4519578 49.5588652,38.9152736 C49.5588652,38.9152736 43.2984058,43.9838556 44.0781783,49.5083945 C44.0781783,49.5083945 43.4491181,57.0352211 51.1154615,58.1053373 C51.1154615,58.1053373 58.9400529,58.5674036 58.6320755,51.8110092 C58.6320755,51.8110092 58.4692406,46.1321266 53.7811041,46.5880836 C53.7811041,46.5880836 49.396358,47.9791059 52.8404625,51.8110092 C52.8404625,51.8110092 54.5084549,52.8881995 52.9944512,54.5779412 C52.9944512,54.5779412 51.2733818,55.6493435 49.5300333,54.0126575 C48.6454174,53.1721275 47.6949467,51.7942887 47.3682941,49.0476143 C47.3682941,49.0476143 46.8974819,42.1436288 55.3455636,42.4449205 C55.3455636,42.4449205 62.9555537,43.2674437 63.1639299,51.9666391 C63.1639299,51.9666391 63.7687451,58.8281801 57.0063481,61.6886829 M64.0577196,13.0160832 C64.0577196,13.0160832 57.6848812,7.2603503 45.385444,7.90537824 C45.385444,7.90537824 41.3705984,8.46358787 39.5840019,10.1977034 C37.7426904,11.9842314 34.5960789,12.2466157 33.4483717,9.89126687 C33.4483717,9.89126687 30.949168,5.28732364 40.8041166,4.22846172 L41.3778064,4.18183706 L42.6732772,4.06511466 L39.7039165,3.95 C28.7677707,3.95 18.9436198,8.64751408 12.2195561,16.0862362 C12.2195561,16.0862362 6.35291461,22.343586 7.00851328,34.4248372 C7.00851328,34.4248372 7.57728853,38.3515976 9.34946903,40.1046845 C11.1694843,41.9156503 11.4348691,45.0070255 9.03428366,46.1321266 C9.03428366,46.1321266 4.34712999,48.5881203 3.26626043,38.9104503 L3.2161322,38.3515976 L3.10047686,37.082764 L2.97794118,39.9886052 C2.97794118,50.7280311 7.7587986,60.3632566 15.3520793,66.9630565 C15.3520793,66.9630565 21.7272111,72.7229696 34.0292694,72.076977 C34.0292694,72.076977 38.0372347,71.5203751 39.8280904,69.7897966 C41.6700573,67.9923359 44.8192898,67.7357395 45.9624101,70.0901237 C45.9624101,70.0901237 48.4655455,74.6963178 38.6135455,75.7497134 L38.0372347,75.802769 L36.7427468,75.9127389 L39.7039165,76.0375 C50.6423558,76.0375 60.470766,71.3412721 67.1928638,63.8938682 C67.1928638,63.8938682 73.0565566,57.6413416 72.4048896,45.5649136 C72.4048896,45.5649136 71.8387354,41.6288283 70.0652444,39.8779922 C68.2455568,38.0679911 67.9749298,34.9737219 70.3791192,33.8547303 C70.3791192,33.8547303 75.0705322,31.3951995 76.141245,41.0693325 L76.1913732,41.6288283 L76.3067009,42.9044145 L76.4338235,39.9886052 C76.4338235,29.2568965 71.650345,19.6200632 64.0577196,13.0160832" id="Fill-7"></path>
                            <path d="M39.6201242,77.5611316 C18.5555027,77.5611316 1.47806774,60.5748365 1.47806774,39.6162012 C1.47806774,18.6646889 18.5555027,1.67418484 39.6201242,1.67418484 C60.6880002,1.67418484 77.7641333,18.6646889 77.7641333,39.6162012 C77.7641333,60.5748365 60.6880002,77.5611316 39.6201242,77.5611316 M39.6458353,0.135627459 C17.7483667,0.135627459 0.000162729026,17.7911561 0.000162729026,39.5718447 C0.000162729026,61.3431439 17.7483667,78.9999676 39.6458353,78.9999676 C61.5309366,78.9999676 79.2859752,61.3431439 79.2859752,39.5718447 C79.2859752,17.7911561 61.5309366,0.135627459 39.6458353,0.135627459" id="Fill-9"></path>
                        </g>
                        <path d="M938.656474,54.7597675 L938.427778,54.7597675 L938.427778,54.3738446 L938.669322,54.3738446 C938.794376,54.3738446 938.869752,54.3781905 938.894591,54.3799289 C938.944271,54.3877517 938.983672,54.4077432 939.010224,54.4390343 C939.037633,54.4711945 939.052195,54.5137851 939.052195,54.5624601 C939.052195,54.6093966 939.041916,54.6476412 939.019646,54.6771939 C938.999089,54.708485 938.97168,54.7293457 938.933992,54.7415144 C938.897161,54.7545523 938.804655,54.7597675 938.656474,54.7597675 L938.656474,54.7597675 Z M939.135279,55.0978847 C939.090739,55.0518173 939.03592,55.0109651 938.968254,54.9692437 C939.103587,54.9509906 939.205515,54.9023156 939.274895,54.8258264 C939.340848,54.7545523 939.374253,54.6580716 939.374253,54.5442069 C939.374253,54.4520722 939.351983,54.3738446 939.307443,54.3034397 C939.262047,54.2321657 939.202945,54.1826215 939.129283,54.1565456 C939.053908,54.126993 938.933992,54.113955 938.77125,54.113955 L938.115998,54.113955 L938.115998,55.645478 L938.427778,55.645478 L938.427778,55.0066191 L938.492018,55.0066191 C938.562254,55.0066191 938.614503,55.0127035 938.647052,55.0257414 C938.6796,55.0353026 938.711292,55.0570325 938.740414,55.0883235 C938.77125,55.1178762 938.824355,55.1943654 938.90487,55.3134452 L939.126713,55.645478 L939.498451,55.645478 L939.311726,55.3482131 C939.237207,55.2265257 939.178106,55.1448212 939.135279,55.0978847 L939.135279,55.0978847 Z M937.062455,55.1587284 L936.780654,54.113955 L936.315553,54.113955 L936.315553,55.645478 L936.602494,55.645478 L936.604207,54.4399034 L936.908278,55.645478 L937.211493,55.645478 L937.514707,54.4399034 L937.516421,55.645478 L937.804218,55.645478 L937.804218,54.113955 L937.333121,54.113955 L937.062455,55.1587284 Z M877.479047,41.6375185 C877.202385,42.0677704 876.912875,42.483246 876.658483,42.8170172 C876.40666,43.1507884 876.189099,43.3993784 876.004087,43.5923398 C875.819931,43.7931241 875.665754,43.934803 875.531278,44.0425833 C875.299156,44.227722 875.111574,44.3320255 874.920565,44.3885232 C874.631912,44.4702276 874.292723,44.4085147 874.051179,44.1321104 C873.803639,43.814854 873.779656,43.6218925 873.804495,43.260307 C873.819057,43.100375 873.856744,42.896114 873.93212,42.6310093 C874.004926,42.3650354 874.111136,42.0451713 874.289296,41.6314341 C874.465743,41.2272581 874.709,40.7257321 875.068747,40.0973035 C875.427636,39.4766977 875.900446,38.7257125 876.466618,37.9390903 C877.022512,37.1568141 877.677764,36.3284705 878.268776,35.6435442 C878.862357,34.9568795 879.396837,34.408417 879.820824,34.0181481 C880.242241,33.6209256 880.554021,33.3862427 880.792139,33.2280491 C881.0294,33.0637711 881.190429,32.9838051 881.323193,32.9351301 C881.56645,32.8395186 881.785724,32.8343034 881.999859,32.9351301 C882.365601,33.1828509 882.205428,33.6278791 882.172879,33.8599544 C882.14547,33.9564352 882.115491,34.0364012 881.949323,34.3354045 C881.780585,34.6291927 881.467091,35.1402798 881.153598,35.651367 L877.479047,41.6375185 Z M860.169254,34.7082895 C860.151267,34.9021202 860.119575,35.1263727 860.075035,35.3332413 C860.027925,35.5444559 859.973107,35.7339406 859.824926,36.0842265 C859.674175,36.4423352 859.431774,36.9568991 859.172243,37.4723322 C858.840763,37.3558599 858.516135,37.2167886 858.266025,37.0924936 C858.017629,36.9612451 857.842038,36.8482496 857.698997,36.7378617 C857.557668,36.6292123 857.446318,36.5231704 857.355524,36.4162593 C857.262162,36.3197785 857.191926,36.2163442 857.129398,36.1276863 C856.686568,35.3254185 856.723399,34.4970749 857.557668,33.6713389 C857.67844,33.5531283 857.817199,33.4427404 857.968806,33.3401753 C858.118701,33.236741 858.282299,33.1437371 858.442472,33.0794166 C858.930699,32.8925395 859.390661,32.7074008 859.81893,33.0689862 C860.279748,33.6391787 860.193237,34.1433123 860.169254,34.7082895 L860.169254,34.7082895 Z M855.982493,42.3285291 C855.352937,43.1881638 855.08227,43.4567453 854.863853,43.6696983 C854.63944,43.8765669 854.464706,44.0269377 854.308816,44.1373256 C854.152069,44.2494519 854.009884,44.3268103 853.877977,44.3885232 C853.260412,44.6579739 852.570899,44.6996953 852.141773,44.0269377 C851.996161,43.7383647 851.955904,43.4854287 851.997018,43.1168897 C852.019288,42.9013292 852.07325,42.6310093 852.190596,42.2711622 C852.308798,41.9087076 852.486958,41.4523798 852.78332,40.8682802 C853.0754,40.285919 853.483969,39.5810012 854.012454,38.7969866 C854.537512,38.0164488 855.183342,37.1611601 855.86429,36.3449852 C856.160653,36.7648068 856.481855,37.1611601 856.738817,37.4384335 C856.995778,37.7148378 857.190212,37.8686855 857.483149,38.0460014 C857.773515,38.2198406 858.16838,38.4093253 858.573523,38.5709957 C857.614199,40.0381982 856.614618,41.4767172 855.982493,42.3285291 L855.982493,42.3285291 Z M882.811857,42.4667313 C882.243972,43.1577419 881.987867,43.4106779 881.795146,43.5923398 C881.600712,43.7783477 881.469661,43.8809128 881.358311,43.9521869 C881.123619,44.1190725 880.886358,44.1729626 880.656806,44.139064 C880.518903,44.1460176 880.317616,43.9730476 880.340743,43.7522719 C880.351878,43.6297153 880.305625,43.6262385 880.42554,43.3428806 C880.491494,43.1881638 880.607127,42.9169747 880.932611,42.2685546 C881.258953,41.6166578 881.792576,40.578838 882.338191,39.5505793 L887.091982,31.332333 L884.063261,31.332333 L883.497088,32.0302973 C883.095372,31.7843148 882.680807,31.5670159 882.375023,31.4409825 C882.075234,31.3097339 881.885082,31.2714893 881.684652,31.2419367 C881.47994,31.2089072 881.263235,31.1932617 881.044818,31.1932617 C880.331321,31.2028229 879.622107,31.4105607 878.757003,31.9233862 C878.431518,32.1233012 878.063206,32.3831908 877.595536,32.7517298 C877.125296,33.1185304 876.556555,33.5983265 875.495303,34.8108546 C874.428912,36.0225136 872.870012,37.9669046 871.579208,39.5418874 C870.290973,41.1238238 869.265696,42.3346135 868.536782,43.1229741 C867.802728,43.9104655 867.368463,44.254667 867.013856,44.516295 C866.657536,44.7770537 866.38173,44.9526313 866.13676,45.0725803 C865.89179,45.2003521 865.678512,45.2820565 865.480651,45.3272547 C864.964159,45.4524188 864.424539,45.4437269 864.039953,45.1655842 C863.803548,44.9648 863.749587,44.7874841 863.696481,44.5754003 C863.588557,43.9878239 863.692198,43.5210658 863.818966,42.9526117 C863.894342,42.6205789 864.009974,42.2311792 864.17186,41.7991889 C864.332033,41.360245 864.547881,40.8648034 864.84253,40.2989569 C865.13204,39.7305029 865.501208,39.0925132 865.95603,38.4015025 C866.857109,37.0133968 868.162474,35.4253761 869.181756,34.4492692 C869.686257,33.9564352 870.102535,33.6174488 870.426306,33.3862427 C870.748365,33.1602518 870.976204,33.036826 871.149225,32.9655519 C871.323959,32.8925395 871.442161,32.8647252 871.562077,32.8647252 C871.726532,32.868202 871.870431,32.8890627 872.01176,33.0003198 C872.189063,33.1637286 872.213046,33.2723781 872.236173,33.5348752 C872.242169,33.6513474 872.237029,33.8156254 872.222468,33.982511 C871.935528,34.0294476 871.648587,34.0937681 871.423318,34.1676497 C871.198048,34.239793 871.036162,34.315413 870.899972,34.3884255 C870.761213,34.4666531 870.65072,34.5387963 870.553074,34.6100704 C869.878978,35.1333263 869.758206,35.7947843 869.777907,36.2293822 C869.814738,36.4379892 869.948358,36.6544189 870.132514,36.8169585 C870.661855,37.294147 871.362503,36.9812366 872.073431,36.1276863 C872.201055,35.9738386 872.335531,35.7904383 872.45716,35.598346 C872.852024,34.981217 873.090142,34.3884255 873.205775,33.8738616 C873.383935,33.0585559 873.359095,32.1033097 872.413476,31.3862232 C872.058869,31.1515403 871.735954,31.0541904 871.287984,31.0541904 C871.039588,31.0541904 870.73466,31.0846122 870.420311,31.1515403 C870.107674,31.2202068 869.789898,31.3253795 869.428439,31.4714044 C869.066123,31.6226444 868.661837,31.8173443 867.9038,32.4309965 C867.148332,33.0472564 866.033976,34.0859453 865.159449,34.8412765 C864.279784,35.5931309 863.639093,36.064235 863.085769,36.4136517 C862.533301,36.7587224 862.070771,36.9864517 861.619375,37.1724596 C861.173118,37.3558599 860.737996,37.4949313 860.296879,37.6009732 C860.55898,37.0133968 860.797954,36.4136517 860.978684,35.9008262 C861.161983,35.3827855 861.286181,34.9481876 861.368409,34.6213699 C861.453206,34.2945523 861.490037,34.0633462 861.508881,33.8286634 C861.546569,33.3679896 861.495176,32.8803708 861.355561,32.5066166 C861.289607,32.326693 861.20481,32.1684994 861.109734,32.0302973 C860.88789,31.71391 860.64292,31.5374632 860.379106,31.4105607 C859.673318,31.1011269 859.054041,31.1515403 858.296861,31.3375482 C857.910562,31.4409825 857.469444,31.6035221 856.970082,31.8521121 C856.466437,32.1033097 855.901122,32.4405577 855.278418,32.8977547 C854.657427,33.3506057 853.981618,33.9190597 853.309235,34.5839945 C852.637709,35.2437141 851.965326,35.9973069 851.361466,36.7682836 C850.166594,38.3076293 849.25952,39.8965193 848.709622,41.2272581 C848.435529,41.8817625 848.240239,42.4771616 848.100623,43.0256242 C847.961863,43.5793019 847.879636,44.0712667 847.837665,44.4702276 C847.800834,44.8674501 847.803404,45.173407 847.832526,45.4524188 C847.859079,45.7296923 847.913897,45.9730671 847.990986,46.1886277 C848.068074,46.4111418 848.166576,46.6058417 848.289918,46.7770733 C848.414116,46.949174 848.558014,47.0995449 848.731892,47.2264475 C848.906626,47.3533501 849.10363,47.4524384 849.334895,47.5237124 C849.564448,47.5906405 849.823979,47.6349695 850.113489,47.6349695 C850.402999,47.6349695 850.725058,47.5906405 851.057395,47.5158897 C851.390588,47.4359237 851.73663,47.3159746 852.111794,47.1360511 C852.484388,46.9561276 852.886105,46.7197063 853.329792,46.4007115 C853.781188,46.0721555 854.276267,45.6514647 854.856144,45.0812722 C855.430882,44.503257 856.096412,43.7722634 856.930681,42.6909838 C857.758954,41.6114426 858.759392,40.1790079 859.694732,38.718759 L862.015952,38.1581277 C861.333291,39.4219384 860.691743,40.7153017 860.320005,41.5392993 C859.949124,42.3650354 859.848909,42.7170597 859.769251,43.100375 C859.516572,44.3007344 859.441196,45.5236929 859.980816,46.4754623 C860.145271,46.7657737 860.356836,47.0187097 860.612085,47.2360086 C860.869903,47.4472232 861.169692,47.6210624 861.523442,47.7331886 C861.873767,47.8496609 862.278053,47.9131122 862.684052,47.9061586 C863.733312,47.8974666 864.663513,47.6610454 865.913204,46.8535625 C866.340616,46.5771582 866.821991,46.2260031 867.481526,45.6271272 C868.141917,45.0308589 868.973617,44.1938233 869.770198,43.308982 C869.698248,44.0773511 869.655422,44.8474586 869.651139,45.3446386 C869.649426,45.8418186 869.682831,46.0695479 869.719662,46.2494714 C869.756493,46.4320025 869.794181,46.5702047 869.839577,46.6927613 C869.884117,46.8083643 869.937223,46.9083218 869.991185,46.9961106 C870.197611,47.3064135 870.413458,47.4254933 870.660998,47.5211049 C871.506402,47.7488342 872.183924,47.6297543 873.048172,47.2264475 C873.353956,47.077815 873.695715,46.8822459 874.141115,46.5545591 C874.583946,46.2260031 875.1347,45.754899 875.660615,45.2629342 C875.631493,45.5793214 875.616932,45.8896243 875.620358,46.123438 C875.626353,46.3502981 875.645197,46.491977 875.670893,46.6093185 C875.710294,46.8066259 875.753978,46.9422205 875.86961,47.1082369 C876.166829,47.481991 876.487175,47.5384888 876.8966,47.6010709 C877.060199,47.6210624 877.264912,47.6349695 877.471338,47.6349695 C878.280767,47.6262776 879.100475,47.3490041 880.082068,46.6979764 C880.594278,46.3598593 881.146746,45.9017931 881.748036,45.2959636 C882.347613,44.6857882 882.998583,43.9235034 883.678675,42.9699956 C884.363906,42.0225722 885.082542,40.8726262 885.734368,39.6913891 L885.113377,39.5505793 C884.255982,40.6822723 883.376316,41.786151 882.811857,42.4667313 L882.811857,42.4667313 Z M912.956027,25.5008984 C912.892643,26.1015127 912.78215,26.7090806 912.591142,27.4166059 C912.402703,28.1284773 912.129467,28.9420446 911.825396,29.7025909 C911.518755,30.4596604 911.182135,31.1645782 910.857507,31.7547622 C910.530309,32.3432078 910.222812,32.8108351 909.939298,33.1958888 C909.206957,34.1719957 908.583397,34.7082895 907.923862,35.0185924 C907.236918,35.3149882 906.605649,35.3558404 906.054038,34.9959933 C905.899861,34.8890823 905.736262,34.6665681 905.685726,34.4614379 C905.571806,33.7686889 905.769667,33.1776357 906.057464,32.4223046 C906.185945,32.1128709 906.344404,31.7843148 906.561965,31.4183834 C906.7761,31.0472368 907.051049,30.6413224 907.409938,30.1815178 C907.768828,29.7234516 908.215085,29.2097569 908.775261,28.6612943 C909.338007,28.1015322 910.021525,27.4991795 910.735022,26.9559322 C911.445093,26.4109464 912.189425,25.9268043 912.956027,25.5008984 L912.956027,25.5008984 Z M904.613339,44.1173341 C904.789786,43.4106779 904.901136,42.7457431 904.958524,42.0764624 C905.003064,41.5792824 904.967946,41.0786256 904.842892,40.7100865 C904.785504,40.5414626 904.712698,40.3963069 904.628757,40.2659275 C904.422331,39.9556246 904.198775,39.7991693 903.925539,39.6661824 C903.773075,39.5931699 903.590632,39.5340646 903.377354,39.49582 C903.163219,39.4506218 902.914823,39.4297611 902.637304,39.4297611 C902.35122,39.4297611 902.031731,39.4636598 901.713956,39.5192883 C900.429147,39.7661399 899.079242,40.4675809 897.671949,42.0477789 C897.314772,42.4554317 896.955883,42.9230591 896.601275,43.4567453 C896.250095,43.9921699 895.905766,44.5971302 895.586277,45.2611958 C895.265075,45.9183078 894.96443,46.6414787 894.707468,47.3950715 C894.453933,48.1538794 894.238085,48.9439784 894.071916,49.7384234 C894.796548,49.1265095 895.54088,48.5311104 896.073648,48.1330187 C896.608128,47.7366654 896.931043,47.5384888 897.366165,47.2968523 C897.798717,47.0604311 898.345188,46.7875036 898.896799,46.5310908 C899.089521,45.6462495 899.38674,44.7501086 899.741347,44.006077 C899.903232,43.6540527 900.075397,43.3463574 900.239852,43.0829911 C900.406021,42.8170172 900.56962,42.5997182 900.728079,42.407626 C901.174336,41.8678554 901.593184,41.568852 902.006892,41.3941436 C902.617604,41.1890134 903.097266,41.1020939 903.601767,41.5862359 C903.817615,41.8609018 903.863868,42.0860235 903.893847,42.3754657 C903.890421,43.4341462 903.659155,44.3850464 903.270286,45.4767563 C903.092126,45.9626368 902.867713,46.4693779 902.591051,46.9995874 C902.316102,47.5237124 901.980339,48.0730442 901.576909,48.6414982 C900.780328,49.7784064 899.65398,51.0048416 898.436838,51.9879021 C897.271089,52.9327179 896.05566,53.6054755 895.224818,53.8705802 C894.823101,53.9974828 894.510464,54.0505037 894.222667,54.0548497 C893.93487,54.0574573 893.6702,54.0192127 893.40296,53.9331623 C892.884754,53.7662767 892.346847,53.4090372 891.931426,52.8875197 C891.728426,52.6250226 891.557975,52.333842 891.426068,52.0313619 C891.159684,51.4020641 891.07917,50.766682 891.131419,50.1565065 C891.21536,49.4385508 891.38838,48.733633 891.840633,47.5237124 C892.297168,46.3077075 893.027796,44.583223 894.011959,42.6492624 C894.998691,40.7257321 896.23382,38.5866412 897.425266,36.7222162 C898.619281,34.8647448 899.774752,33.2862852 900.810307,31.993791 C901.845862,30.6952125 902.766642,29.6834686 903.594058,28.8603402 C904.420618,28.0372117 905.153815,27.4000912 905.809924,26.8872657 C906.466889,26.3813937 907.047623,26.0032936 907.573537,25.699075 C908.099452,25.3974641 908.576544,25.17495 909.016805,25.0037184 C910.180841,24.5352219 911.236097,24.5074076 912.418121,24.5265299 C911.500768,25.0619545 910.612537,25.6651764 909.821095,26.3022969 C908.22879,27.567846 907.054475,28.8916312 906.291299,30.0198474 C905.905856,30.5935166 905.61035,31.1219876 905.376515,31.6174293 C905.14525,32.1128709 904.978225,32.5761522 904.861736,33.0142269 C904.74182,33.4531708 904.674154,33.8651696 904.637322,34.186772 C904.603917,34.5092437 904.609057,34.7465341 904.636466,34.9481876 C904.662162,35.1567946 904.715267,35.3358489 904.778651,35.4975193 C904.848031,35.655713 904.930259,35.7904383 905.034756,35.9121257 C905.139254,36.0355515 905.264309,36.139855 905.405638,36.2232978 C905.551249,36.3102174 905.720844,36.3762763 905.921274,36.4275588 C906.119135,36.4797106 906.34783,36.5049173 906.57567,36.5049173 C907.058758,36.5049173 907.550411,36.3762763 908.144849,36.0990028 C908.452346,35.9477627 908.793249,35.7469785 909.16156,35.474051 C909.531585,35.2028619 909.935015,34.8647448 910.351293,34.4492692 C910.763288,34.031186 911.186418,33.5444363 911.588135,33.0116193 C911.989851,32.4779331 912.371868,31.8929643 912.698209,31.3123415 C913.329478,30.1945557 913.776591,29.063732 914.013853,28.0858867 C914.132911,27.6147826 914.201435,27.1862691 914.239979,26.7542787 C914.248544,26.6482369 914.25197,26.5395874 914.252827,26.3275036 C914.247688,26.1180274 914.239979,25.7981634 914.238266,25.5730416 C914.237409,25.3470507 914.245975,25.2175406 914.259679,25.081946 C915.305513,25.0680389 916.343638,25.1932031 917.302105,25.4557002 C918.263998,25.7181973 919.150516,26.1180274 920.442176,26.9394174 C921.729554,27.7651535 923.423788,29.0133186 925.034081,30.3796944 L928.088498,27.1732311 C927.078639,26.2883898 926.02167,25.4748225 925.094895,24.8594319 C924.169833,24.2431721 923.375822,23.8285657 922.667464,23.5200012 C921.959106,23.2183902 921.33469,23.0236904 920.757383,22.897657 C919.872578,22.7064339 919.163364,22.6655817 918.186053,22.7724928 C917.85029,22.8098682 917.508531,22.8689735 916.82073,23.0610658 C916.135499,23.257504 915.115361,23.5956212 914.104646,23.9693754 C913.562457,23.6095283 912.994571,23.2861875 912.577437,23.0914876 C912.157733,22.9002645 911.902484,22.8315981 911.630962,22.7881383 C910.619389,22.6186451 909.693471,22.7385941 908.447207,23.101918 C907.542702,23.377453 906.45918,23.8059666 905.183794,24.4839393 C903.907551,25.166258 902.443727,26.0971667 900.930223,27.247982 C899.419288,28.393582 897.866383,29.765173 896.438533,31.1993461 C895.011539,32.6369959 893.713883,34.1389663 892.607235,35.598346 C891.500587,37.0481646 890.58409,38.457131 889.831193,39.7817854 C889.078295,41.1020939 888.494992,42.3285291 888.034174,43.4810828 C887.573357,44.6414592 887.237593,45.7175236 886.99348,46.7197063 C886.747653,47.7297119 886.596046,48.6614898 886.530092,49.4150825 C886.458143,50.1712829 886.472704,50.7440829 886.54808,51.2908071 C886.620885,51.836662 886.756219,52.3642639 886.959218,52.8579671 C887.164788,53.3481935 887.430315,53.8114749 887.760082,54.2304273 C888.090706,54.651118 888.493279,55.0196571 888.939536,55.3334367 C889.389219,55.6341785 889.89629,55.8775533 890.429913,56.0400929 C891.545983,56.364303 892.5961,56.3860329 893.819237,56.0088019 C894.453933,55.8175788 895.179421,55.5203138 895.96915,55.0805008 C897.571734,54.202613 899.375605,52.7258493 900.762341,51.1247907 C902.192761,49.4950485 903.212042,47.8027243 903.863011,46.2990156 C904.188496,45.5341233 904.431753,44.8118215 904.613339,44.1173341 L904.613339,44.1173341 Z M929.669669,49.5976136 C929.281657,50.2103967 928.848248,50.7927579 928.496211,51.2256174 C928.153595,51.6567385 927.884642,51.9279276 927.659372,52.1304502 C927.432389,52.3268885 927.244807,52.4555294 927.054656,52.5354954 C926.676922,52.7015118 926.263214,52.7310645 926.002826,52.4929049 C925.782696,52.2199774 925.809248,52.0131088 925.834088,51.6211015 C925.852932,51.4455239 925.889763,51.2117102 925.946295,50.9483439 C926.007965,50.6806316 926.094476,50.3790207 926.216104,50.0400343 C926.334307,49.7010479 926.493623,49.3220786 926.709471,48.8796579 C926.925318,48.4398448 927.199411,47.939188 927.542026,47.3802951 C927.889781,46.8214022 928.307772,46.2051424 928.790003,45.5706295 C929.276517,44.9404625 929.826415,44.2798737 930.354043,43.7088121 C930.888523,43.1342736 931.398164,42.6397012 931.826433,42.2711622 C932.254703,41.8965388 932.595605,41.6505564 932.859419,41.48454 C933.125803,41.3193928 933.310815,41.2324732 933.456427,41.1785831 C933.602038,41.1238238 933.711675,41.1020939 933.818743,41.1020939 C934.009751,41.1038322 934.153649,41.1038322 934.297548,41.1942286 C934.511682,41.3941436 934.394337,41.6253497 934.3241,41.8965388 C934.277847,42.0582092 934.196476,42.2624703 934.079987,42.5058451 C933.961785,42.7535659 933.799899,43.0473541 933.624308,43.3298427 L929.669669,49.5976136 Z M914.726493,42.896114 C914.705936,43.100375 914.67767,43.2985516 914.637413,43.4958591 C914.598012,43.6957741 914.547476,43.8887356 914.372742,44.3007344 C914.202291,44.7127332 913.901646,45.346377 913.577874,45.967852 C913.235259,45.8522489 912.896069,45.7131776 912.653669,45.5871442 C912.412125,45.4680644 912.2648,45.3620225 912.146598,45.2629342 C912.0224,45.1655842 911.929037,45.0682343 911.851949,44.9726228 C911.68835,44.7770537 911.588135,44.5971302 911.517042,44.3885232 C911.230958,43.3394039 911.390274,42.2581243 912.589429,41.4106584 C912.949175,41.1890134 913.300356,41.0899251 913.624984,41.0968787 C913.955608,41.1020939 914.200578,41.1177394 914.466962,41.3550298 C914.720497,41.6479488 914.733345,41.8965388 914.754759,42.2989765 C914.754759,42.4649929 914.74448,42.6822918 914.726493,42.896114 L914.726493,42.896114 Z M912.06951,48.8283753 C911.657514,49.430728 911.234384,49.9930977 910.823246,50.4789782 C910.417246,50.9692046 910.018099,51.388157 909.684049,51.7054135 C909.345716,52.0278851 909.062202,52.2590912 908.830936,52.4155464 C908.601384,52.5728709 908.42408,52.6632672 908.288747,52.7223725 C908.153414,52.7806087 908.052343,52.8023386 907.944419,52.8023386 C907.62493,52.7971234 907.312293,52.6537061 907.057045,52.2964666 C906.975673,52.1808636 906.90715,52.045269 906.853188,51.8957673 C906.732416,51.5376587 906.697298,51.2438705 906.740982,50.7736356 C906.766678,50.5120076 906.821496,50.1712829 906.90972,49.816651 C906.997943,49.4620191 907.122141,49.0882649 907.290023,48.6953884 C907.857052,47.3533501 908.904599,45.9287381 910.293905,44.7214252 C910.428381,45.0360741 910.604828,45.3394234 910.879777,45.6419035 C911.005688,45.7835824 911.158152,45.9183078 911.342308,46.0643327 C911.525607,46.2051424 911.746594,46.3416062 912.071223,46.4980614 C912.395851,46.6493015 912.818981,46.8144487 913.254959,46.949174 C912.885791,47.6010709 912.485787,48.232107 912.06951,48.8283753 L912.06951,48.8283753 Z M937.005067,47.9131122 C936.424334,48.7205951 935.817904,49.5072173 935.327964,50.100878 C934.840593,50.6971463 934.467999,51.090892 934.16821,51.3933722 C933.870991,51.6880295 933.642296,51.8870754 933.452144,52.0313619 C933.268845,52.1773868 933.115524,52.2712599 932.993039,52.3390572 C932.737791,52.471175 932.56477,52.5354954 932.321513,52.4929049 C932.084252,52.4337995 932.09453,52.2199774 932.103095,52.089598 C932.13907,51.9879021 932.060268,52.1304502 932.396888,51.4750766 C932.647854,50.9926729 933.129229,50.0774097 933.618313,49.1638849 L939.262047,39.4167232 L936.485148,39.4167232 L935.529251,40.250282 C935.184065,40.0138607 934.826889,39.7991693 934.560505,39.6722668 C934.294978,39.540149 934.127097,39.49582 933.961785,39.4636598 C933.788764,39.4297611 933.620026,39.4167232 933.434157,39.4167232 C932.477403,39.4219384 931.567759,39.7365872 930.557043,40.3450243 C930.255541,40.5275554 929.933483,40.7500696 929.567741,41.0342966 C929.207138,41.3193928 928.802851,41.6775015 928.317194,42.1381753 C927.824684,42.5997182 927.253373,43.1681723 926.240944,44.4563205 C925.227658,45.7453378 923.774112,47.7453574 922.750548,49.1126024 C921.732124,50.4850625 921.140255,51.2317017 920.723978,51.6923755 C920.318835,52.1591337 920.092708,52.3416648 919.911979,52.4737825 C919.732106,52.6024235 919.601055,52.6719592 919.483709,52.7171574 C919.323537,52.7823471 919.194199,52.8023386 919.03574,52.7806087 C918.776208,52.7667015 918.47385,52.3790402 918.431023,52.1113279 C918.334234,51.6080635 918.389909,51.3820726 918.568069,50.6110959 C918.673424,50.1565065 918.856723,49.483749 919.134242,48.6241143 C919.404051,47.7644797 919.772363,46.7197063 920.163801,45.6853633 C922.313714,44.2798737 924.402812,42.7370512 925.9994,41.3941436 C927.602841,40.0512361 928.713771,38.9108512 929.864103,37.5392603 C931.006726,36.1589773 932.189606,34.5544419 933.268845,32.8647252 L931.992602,33.0064041 C931.169468,34.2050252 930.272672,35.3462792 929.21656,36.5440311 C928.163873,37.7356985 926.951871,38.9812561 925.623379,40.1764003 C924.294888,41.3758905 922.849907,42.5301826 921.358673,43.588863 C922.304292,41.7783282 923.313294,39.9877848 924.370263,38.2398321 C925.426375,36.5014405 926.537306,34.8004243 927.634532,33.236741 C928.730902,31.6765346 929.818706,30.2527918 930.796017,29.0724239 C931.779324,27.8929252 932.645284,26.9559322 933.355355,26.2588371 C934.062856,25.5643497 934.611041,25.1071527 935.038454,24.7959806 C935.462441,24.4900237 935.769938,24.3248765 936.00206,24.2240498 C936.235039,24.1293074 936.394355,24.091932 936.554527,24.091932 C936.629903,24.091932 936.706991,24.1162695 936.777228,24.1684212 C937.07616,24.4343951 937.023911,24.5873736 936.969949,24.8829002 C936.961383,24.966343 936.935687,25.0523934 936.805493,25.3887721 C936.675299,25.7216741 936.435469,26.3022969 936.184503,26.8759662 L937.333978,26.7403716 C937.546399,26.4013852 937.74169,26.0502301 937.860749,25.8042477 C937.981521,25.5643497 938.021778,25.4357087 938.056897,25.2783843 C938.092871,25.1297518 938.118567,24.9585202 938.133128,24.7864194 C938.174242,24.2153578 938.068888,23.6625493 937.560961,23.1992679 C937.422201,23.0819265 937.261172,22.9897917 937.089864,22.9306864 C936.498852,22.7438093 935.966085,22.8507204 935.285994,23.0375975 C934.813184,23.1757996 934.267569,23.3939678 933.615743,23.7555532 C932.9682,24.1127927 932.210163,24.6143187 931.297949,25.3496583 C930.385735,26.084998 929.312492,27.0593665 928.101346,28.349253 C926.883348,29.636532 925.527447,31.2375907 924.12615,33.1046233 C922.726565,34.9673099 921.285867,37.0977088 919.967654,39.2759135 C918.646871,41.4523798 917.44429,43.6809978 916.357343,45.9626368 L914.840413,45.9626368 C915.139345,45.3246471 915.421146,44.6710118 915.600162,44.2042537 C915.774896,43.730542 915.854554,43.4463149 915.916225,43.1603495 C916.090959,42.3789425 916.126934,41.5062699 915.836567,40.81439 C915.7492,40.6014371 915.63785,40.4171676 915.509369,40.2598431 C915.008294,39.6809587 914.570603,39.5636173 913.961604,39.5505793 C913.718347,39.5584021 913.424554,39.5931699 913.084508,39.6809587 C912.745319,39.7609247 912.364159,39.8965193 911.927324,40.1120798 C911.487063,40.3232944 910.996266,40.6118674 910.436947,41.0090899 C909.877627,41.4106584 909.257493,41.9191379 908.599671,42.5571276 C907.940993,43.1951173 907.247196,43.9521869 906.5928,44.7709693 C905.250604,46.45634 904.177361,48.2816512 903.571788,49.6767105 C903.261721,50.385105 903.045017,51.0117952 902.891696,51.5628653 C902.740946,52.1182815 902.659574,52.5919932 902.617604,53.0031228 C902.583342,53.4090372 902.591908,53.7636691 902.6433,54.0757104 C902.69041,54.3912285 902.77692,54.6711095 902.901118,54.9179611 C903.025316,55.1682895 903.184633,55.3864577 903.377354,55.5663812 C903.569219,55.742828 903.792775,55.8888529 904.044598,55.9809876 C904.29899,56.0792067 904.580791,56.1235357 904.867731,56.1278817 C905.45703,56.1313585 906.042046,55.97838 906.766678,55.6115794 C907.139272,55.4168795 907.551267,55.1604668 908.02579,54.7997505 C908.498599,54.4303423 909.025371,53.9679301 909.632657,53.3351556 C910.246795,52.6971659 910.937165,51.8905522 911.729464,50.8266565 C912.51491,49.7688452 913.409136,48.4398448 914.237409,47.077815 L915.752626,47.077815 C915.248125,48.4102922 914.774459,49.7540689 914.501223,50.6058808 C914.227987,51.459431 914.154325,51.8201473 914.094367,52.1669564 C913.983874,52.8223301 913.905072,53.461189 913.959034,54.0157359 C913.9873,54.2695411 914.039549,54.499878 914.114068,54.7137001 C914.188587,54.9257839 914.286232,55.1117918 914.406147,55.2873694 C914.528632,55.4516474 914.670818,55.6072334 914.841269,55.7350052 C915.009151,55.8566926 915.201015,55.9549117 915.413437,56.0244474 C915.626715,56.0887679 915.862263,56.1278817 916.11066,56.1313585 C916.946641,56.1235357 917.752644,55.8349627 918.752225,55.1335217 C919.126533,54.8666786 919.550519,54.5224771 920.061016,54.0348582 C920.570657,53.5446318 921.171947,52.9040345 921.739833,52.2304077 C921.703001,52.6484909 921.687584,53.0674433 921.696149,53.41686 C921.703858,53.7636691 921.730411,54.0348582 921.765529,54.2625875 C921.803216,54.4833632 921.851183,54.6667636 921.902575,54.8258264 C921.953967,54.9822816 922.013068,55.1091842 922.075596,55.2195721 C922.210072,55.4594701 922.354827,55.6072334 922.507291,55.7219673 C922.815645,55.9279667 923.070894,55.9957639 923.481176,55.9905488 C923.648201,55.9862028 923.858909,55.9714265 924.077327,55.9279667 C924.509879,55.8401779 924.919305,55.6880686 925.438367,55.3690738 C925.702181,55.2047958 925.99683,54.9944504 926.407969,54.6293881 C926.813968,54.2695411 927.339027,53.7480236 927.839245,53.208253 C927.80584,53.5915683 927.791279,53.9766221 927.794705,54.2695411 C927.800701,54.5607217 927.82811,54.7580291 927.858946,54.912746 C927.888068,55.0787624 927.918903,55.2021882 927.963443,55.3099684 C928.061945,55.6289633 928.388287,55.9653421 928.649531,56.0348777 C929.490652,56.262607 930.179309,56.0687764 931.11208,55.6115794 C931.481248,55.4168795 931.893243,55.1604668 932.348922,54.8040965 C932.802031,54.442511 933.303963,53.9835757 933.872705,53.3742694 C934.439733,52.759748 935.067576,51.9974632 935.73482,51.0439554 C936.403777,50.0982704 937.121556,48.9535395 937.775952,47.7723024 L937.005067,47.9131122 Z M940.743002,26.0180699 C939.387101,26.8351139 938.179382,27.3696694 936.790932,27.7243013 C935.401626,28.0858867 933.832447,28.282325 932.288108,28.2632027 L929.45896,31.7443318 C929.691939,31.7808381 929.921491,31.8086523 930.116782,31.8242979 C930.499655,31.8712344 930.923641,31.8894875 931.466687,31.8851416 C932.480829,31.8894875 933.507819,31.7478086 934.588771,31.4592356 C936.76181,30.8890432 939.19695,29.6104561 941.084761,27.9754988 C942.037232,27.159324 942.846661,26.2823054 943.492492,25.4244092 C944.137465,24.5612977 944.628262,23.7181778 945,22.8289905 C943.600416,24.0815016 942.098903,25.1932031 940.743002,26.0180699 L940.743002,26.0180699 Z M893.0218,31.3523245 L889.741256,31.3523245 L888.08471,34.4171089 L891.238486,34.4171089 L893.0218,31.3523245 Z M874.947118,50.766682 C873.456741,50.4389952 871.695697,50.2590716 869.918379,50.2781939 C868.334639,50.189536 866.731198,50.3155694 863.839523,50.9822425 C860.945279,51.6567385 856.764513,52.8683974 853.990184,53.5628849 C851.213285,54.2538955 849.844536,54.4303423 848.480069,54.4581566 C847.8094,54.4581566 847.142156,54.3999204 846.558853,54.291271 C845.968698,54.1843599 845.46334,54.0244279 845.026505,53.8358124 C844.583674,53.6515429 844.209367,53.4307671 843.883882,53.1891307 C843.560967,52.9483635 843.284305,52.6806511 843.045331,52.3972933 C842.8055,52.1113279 842.608496,51.8088478 842.445754,51.4785533 C842.278729,51.1499973 842.146822,50.7971038 842.04832,50.4190037 C841.950674,50.0365575 841.882151,49.6262971 841.853029,49.1777921 C841.82048,48.733633 841.824763,48.2547061 841.868447,47.7723024 C841.937826,47.0439164 842.083438,46.3181379 842.384083,45.3446386 C842.685585,44.3667933 843.13955,43.1394888 843.839342,41.6418644 C844.536565,40.1494553 845.477044,38.3954181 846.548574,36.645727 C847.624387,34.9073354 848.826968,33.1880661 849.962738,31.7295555 C851.095939,30.2797369 852.160617,29.1002382 853.0951,28.1684603 C854.029584,27.2366824 854.83987,26.5561021 855.536236,26.0337154 C856.234315,25.5174131 856.815905,25.1697348 857.334111,24.9107144 C857.845465,24.6508249 858.298574,24.4900237 858.699434,24.3839818 C859.105433,24.2788091 859.459184,24.2310033 859.815504,24.2310033 C860.047626,24.2379569 860.225786,24.2483872 860.409942,24.4039733 C860.584676,24.5943272 860.596667,24.749044 860.606946,25.0306635 C860.611228,25.1523509 860.605233,25.3209749 860.591528,25.4835145 C860.057048,25.7364505 859.467749,26.1423649 859.013784,26.5395874 C858.803932,26.7247261 858.649755,26.8872657 858.522987,27.0298138 C858.202641,27.403568 858.002211,27.7538539 857.963667,28.1232621 C857.90114,28.393582 858.194932,28.8829393 858.404784,29.0133186 C859.048902,29.525275 859.854048,29.1828118 860.656625,28.2632027 C860.813372,28.0789331 860.968405,27.860765 861.110591,27.6226053 C861.251919,27.3853149 861.381257,27.1280329 861.484041,26.870751 C861.879762,25.8346696 862.106745,24.7655587 861.520873,23.8555107 C861.385539,23.6495113 861.210806,23.4669802 861.000097,23.3157401 C860.791102,23.1662385 860.540992,23.0445511 860.251482,22.9611083 C859.963685,22.8759271 859.639057,22.8289905 859.14826,22.8437668 C858.660033,22.8524588 858.01249,22.9237328 857.27244,23.0914876 C856.535817,23.2635884 855.715253,23.5382543 854.790191,23.9545991 C853.865129,24.3752898 852.841565,24.9350519 851.701512,25.7051594 C850.566598,26.4717901 849.315195,27.4452894 848.025247,28.6160961 C846.738726,29.7947257 845.412804,31.1697934 844.187954,32.6309116 C841.694569,35.5931309 839.743374,38.7683031 838.625591,41.2559415 C838.047427,42.5197522 837.652563,43.6401456 837.371618,44.6301596 C837.094099,45.6210428 836.934783,46.487631 836.859408,47.3542193 C836.75748,48.4989501 836.786602,49.639335 836.974184,50.5954504 C837.064977,51.0491706 837.181466,51.459431 837.329647,51.8462232 C837.476116,52.2330153 837.649136,52.5876472 837.856419,52.9144648 C838.062845,53.2491052 838.302676,53.5507161 838.580194,53.8375508 C838.861139,54.1235162 839.181484,54.3912285 839.559218,54.6354725 C839.936952,54.8849317 840.368647,55.103969 840.890279,55.3047533 C841.408485,55.5029299 842.015771,55.6793767 842.769525,55.7967181 C843.518997,55.9227515 844.418363,55.9905488 845.317728,55.9905488 C846.731874,56.0348777 848.16058,55.9253591 850.559746,55.3916729 C852.96148,54.855379 856.336243,53.909694 858.746543,53.381223 C861.155131,52.8484059 862.595829,52.7362797 864.020253,52.786693 C864.919619,52.7823471 865.814702,52.8484059 866.535051,52.9753085 C867.251974,53.0943883 867.795019,53.2682275 868.297808,53.496826 C868.801452,53.7158633 869.268266,53.9913984 869.771054,54.4103508 C870.274699,54.8258264 870.82374,55.3812425 871.314537,55.9905488 C872.893138,54.912746 874.50857,54.2756254 875.724855,54.0713644 C876.334711,53.9514154 876.882896,53.8992637 877.428511,53.8992637 C877.658063,53.9018712 877.885046,53.9253395 878.155713,53.9635841 C878.424666,53.9974828 878.734733,54.0574573 879.60412,54.3434227 C880.47265,54.6354725 881.906496,55.1604668 883.324924,55.7089293 C881.937331,54.3834057 880.409266,53.208253 879.035378,52.3851246 C877.65892,51.5628653 876.439209,51.090892 874.947118,50.766682 L874.947118,50.766682 Z" id="coke"></path>
                    </g>
                </g>
            </g>
        </g>
    </g>
</svg>