<?xml version="1.0" encoding="UTF-8"?>
<svg width="26px" height="26px" viewBox="0 0 26 26" version="1.1" xmlns="http://www.w3.org/2000/svg" xmlns:xlink="http://www.w3.org/1999/xlink">
    <!-- Generator: Sketch 63.1 (92452) - https://sketch.com -->
    <title>Path</title>
    <desc>Created with Sketch.</desc>
    <g id="Symbols" stroke="none" stroke-width="1" fill="none" fill-rule="evenodd">
        <g id="footer" transform="translate(-848.000000, -27.000000)" fill="#FFFFFF" fill-rule="nonzero">
            <g id="Path">
                <path d="M874,40.0791075 C874,32.8539554 868.181452,27 861,27 C853.818548,27 848,32.8539554 848,40.0791075 C848,46.6070588 852.753911,52.0180122 858.96875,53 L858.96875,43.8599189 L855.666331,43.8599189 L855.666331,40.0791075 L858.96875,40.0791075 L858.96875,37.1974848 C858.96875,33.9197972 860.908266,32.1092901 863.878871,32.1092901 C865.301532,32.1092901 866.789194,32.3645436 866.789194,32.3645436 L866.789194,35.5815822 L865.149516,35.5815822 C863.535,35.5815822 863.03125,36.5899391 863.03125,37.6241379 L863.03125,40.0791075 L866.636653,40.0791075 L866.06004,43.8599189 L863.03125,43.8599189 L863.03125,53 C869.246089,52.0180122 874,46.6070588 874,40.0791075 Z"></path>
            </g>
        </g>
    </g>
</svg>