<?xml version="1.0" encoding="UTF-8"?>
<svg width="26px" height="26px" viewBox="0 0 26 26" version="1.1" xmlns="http://www.w3.org/2000/svg" xmlns:xlink="http://www.w3.org/1999/xlink">
    <!-- Generator: Sketch 63.1 (92452) - https://sketch.com -->
    <title>Shape</title>
    <desc>Created with Sketch.</desc>
    <g id="Symbols" stroke="none" stroke-width="1" fill="none" fill-rule="evenodd">
        <g id="footer" transform="translate(-936.000000, -27.000000)" fill="#FFFFFF" fill-rule="nonzero">
            <g id="Shape">
                <path d="M949.5,34 C945.902089,34 943,36.9020888 943,40.5 C943,44.0979112 945.902089,47 949.5,47 C953.097911,47 956,44.0979112 956,40.5 C956,36.9020888 953.097911,34 949.5,34 Z M949.5,45 C947.024096,45 945,42.9819277 945,40.5 C945,38.0180723 947.018072,36 949.5,36 C951.981928,36 954,38.0180723 954,40.5 C954,42.9819277 951.975904,45 949.5,45 L949.5,45 Z M957,33.5 C957,34.3339552 956.328358,35 955.5,35 C954.666045,35 954,34.3283582 954,33.5 C954,32.6716418 954.671642,32 955.5,32 C956.328358,32 957,32.6716418 957,33.5 Z M961.908645,34.6392949 C961.810039,32.5565101 961.334412,30.7115921 959.808924,29.1915653 C958.289236,27.6715385 956.44473,27.195805 954.362409,27.0913757 C952.216286,26.9695414 945.783714,26.9695414 943.637591,27.0913757 C941.561071,27.1900033 939.716564,27.6657369 938.191076,29.1857637 C936.665588,30.7057905 936.195761,32.5507085 936.091355,34.6334933 C935.969548,36.780096 935.969548,43.2141024 936.091355,45.3607051 C936.189961,47.4434899 936.665588,49.2884079 938.191076,50.8084347 C939.716564,52.3284615 941.55527,52.804195 943.637591,52.9086243 C945.783714,53.0304586 952.216286,53.0304586 954.362409,52.9086243 C956.44473,52.8099967 958.289236,52.3342631 959.808924,50.8084347 C961.328611,49.2884079 961.804239,47.4434899 961.908645,45.3607051 C962.030452,43.2141024 962.030452,36.7858976 961.908645,34.6392949 Z M959.47096,48.0395751 C959.025777,49.1582403 958.163948,50.0200691 957.039575,50.4709597 C955.35587,51.1387343 951.360637,50.9846325 949.5,50.9846325 C947.639363,50.9846325 943.638423,51.1330269 941.960425,50.4709597 C940.84176,50.0257766 939.979931,49.1639478 939.52904,48.0395751 C938.861266,46.3558699 939.015367,42.360637 939.015367,40.5 C939.015367,38.639363 938.866973,34.6384227 939.52904,32.9604249 C939.974223,31.8417597 940.836052,30.9799309 941.960425,30.5290403 C943.64413,29.8612657 947.639363,30.0153675 949.5,30.0153675 C951.360637,30.0153675 955.361577,29.8669731 957.039575,30.5290403 C958.15824,30.9742234 959.020069,31.8360522 959.47096,32.9604249 C960.138734,34.6441301 959.984633,38.639363 959.984633,40.5 C959.984633,42.360637 960.138734,46.3615773 959.47096,48.0395751 Z"></path>
            </g>
        </g>
    </g>
</svg>