<?xml version="1.0" encoding="UTF-8"?>
<svg width="34px" height="26px" viewBox="0 0 34 26" version="1.1" xmlns="http://www.w3.org/2000/svg" xmlns:xlink="http://www.w3.org/1999/xlink">
    <!-- Generator: Sketch 63.1 (92452) - https://sketch.com -->
    <title>Path</title>
    <desc>Created with Sketch.</desc>
    <g id="Symbols" stroke="none" stroke-width="1" fill="none" fill-rule="evenodd">
        <g id="footer" transform="translate(-888.000000, -27.000000)" fill="#FFFFFF" fill-rule="nonzero">
            <g id="Path">
                <path d="M918.505158,33.4796639 C918.52674,33.7640253 918.52674,34.0484493 918.52674,34.3328107 C918.52674,43.0062092 911.515342,53 898.700546,53 C894.752546,53 891.085047,51.9233907 888,50.054721 C888.560936,50.1156198 889.100223,50.1359403 889.682741,50.1359403 C892.940312,50.1359403 895.939097,49.1000344 898.333783,47.332842 C895.270317,47.2718806 892.703042,45.3828279 891.818507,42.7828091 C892.250017,42.843708 892.68146,42.8843489 893.134551,42.8843489 C893.760167,42.8843489 894.385849,42.8030671 894.968301,42.6609489 C891.775409,42.0515226 889.380658,39.4109254 889.380658,36.2218634 L889.380658,36.1406441 C890.30829,36.6281476 891.387064,36.9328295 892.530385,36.9734078 C890.653471,35.7952587 889.423822,33.7843458 889.423822,31.5093294 C889.423822,30.2906018 889.768937,29.1734141 890.373037,28.1984071 C893.803265,32.1796545 898.959398,34.7796108 904.741081,35.0640347 C904.633237,34.5765312 904.568491,34.0687697 904.568491,33.5609458 C904.568491,29.945279 907.67512,27 911.536791,27 C913.543131,27 915.355298,27.7921854 916.628178,29.0718743 C918.203009,28.7875129 919.713159,28.239048 921.050785,27.4875035 C920.532947,29.0109755 919.432724,30.2906644 917.98732,31.1031077 C919.389627,30.9609895 920.748769,30.5952837 922,30.0875223 C921.050918,31.3874691 919.8643,32.5452353 918.505158,33.4796639 Z"></path>
            </g>
        </g>
    </g>
</svg>