<?xml version="1.0" encoding="UTF-8"?>
<svg width="189px" height="24px" viewBox="0 0 189 24" version="1.1" xmlns="http://www.w3.org/2000/svg" xmlns:xlink="http://www.w3.org/1999/xlink">
    <!-- Generator: Sketch 63.1 (92452) - https://sketch.com -->
    <title>Group 30</title>
    <desc>Created with Sketch.</desc>
    <defs>
        <polygon id="path-1" points="0.000669503546 0.0648796209 15.925322 0.0648796209 15.925322 24 0.000669503546 24"></polygon>
    </defs>
    <g id="Symbols" stroke="none" stroke-width="1" fill="none" fill-rule="evenodd">
        <g id="header" transform="translate(-54.000000, -29.000000)">
            <g id="Group-30">
                <g transform="translate(54.000000, 29.000000)">
                    <path d="M32.256331,23.9851213 C29.504548,24.0074758 26.0461827,23.9980094 23,23.9980094 C25.286042,15.994529 27.5755245,7.93904015 29.843102,0 L39,0 C38.7681043,0.829739643 38.5450395,1.63039563 38.3207131,2.43093756 C36.6441141,8.41361701 34.9691207,14.3965246 33.2890811,20.3789759 L32.256331,23.9851213 Z" id="Fill-1" fill="#8CD2FF"></path>
                    <path d="M10,23.9980517 C12.2182941,15.9598871 14.4204725,7.98040199 16.6228731,0 L21,0 C20.7807158,0.829305331 20.575102,1.63316763 20.355151,2.43462315 C19.539587,5.40584216 18.7186881,8.37614429 17.9005678,11.3469049 C16.9897547,14.6548429 16.0798307,17.962781 15.1693509,21.270719 C14.9473993,22.0772173 14.3972437,24 14.3972437,24 L10,23.9980517 Z" id="Fill-3" fill="#EC320D"></path>
                    <path d="M16,23.9980517 C18.2182941,15.9598871 20.4204725,7.98040199 22.6228731,0 L27,0 C26.7807158,0.829305331 26.575102,1.63316763 26.355151,2.43462315 C25.5394758,5.40584216 24.7186881,8.37614429 23.9005678,11.3469049 C22.9897547,14.6548429 22.0798307,17.962781 21.1693509,21.270719 C20.9472881,22.0772173 20.3972437,24 20.3972437,24 L16,23.9980517 Z" id="Fill-5" fill="#EC320D"></path>
                    <path d="M0,24 C2.14303513,15.9611829 4.27034983,7.9810499 6.39799433,0 L9,0 C8.78464113,0.82937266 8.57994577,1.63330022 8.36700542,2.43482081 C7.57746617,5.40616642 6.78495871,8.37682433 5.99388039,11.3478261 C5.11320663,14.6559181 4.23308252,17.9642393 3.35262862,21.2724459 C3.13792935,22.0790097 2.84275908,23.1976771 2.6144281,24 L0,24 Z" id="Fill-7" fill="#FF812C"></path>
                    <path d="M5,24 C7.14303513,15.9611829 9.27034983,7.9810499 11.3979943,0 L14,0 C13.7846411,0.82937266 13.5799458,1.63330022 13.3670054,2.43482081 C12.5774662,5.40616642 11.7849587,8.37682433 10.9938804,11.3478261 C10.1132066,14.6559181 9.23308252,17.9642393 8.35262862,21.2724459 C8.13792935,22.0790097 7.84275908,23.1976771 7.6144281,24 L5,24 Z" id="Fill-9" fill="#FF812C"></path>
                    <polygon id="Fill-11" fill="#000000" points="42.9284531 14.227857 40.1951251 23.9981752 35 23.9972629 41.7133778 0 47.2374708 0.00102642571 48.0715469 9.77202895 50.8048749 0.00171070952 56 0.00273713523 49.2866222 24 43.7624165 23.9988595"></polygon>
                    <path d="M60.3730819,18.8569962 L64.2561098,5.14357405 L61.6269181,5.14311784 L57.7438902,18.85654 L60.3730819,18.8569962 Z M65.1463005,20.5721292 L61.5462093,24 L53.6584062,23.9986314 L52,20.5697341 L56.8536995,3.42798487 L60.4887873,0 L68.3414798,0.00148269242 L70,3.43037999 L65.1463005,20.5721292 Z" id="Fill-13" fill="#000000"></path>
                    <polygon id="Fill-15" fill="#000000" points="86 0.00239509576 84.5437133 5.14489379 80.599095 5.14420948 75.2591869 24 70 23.9989735 75.3399081 5.14329706 71.3954039 5.14249869 72.8518046 0"></polygon>
                    <path d="M97.3027034,12 L99.2472644,5.14336223 L96.6139096,5.14290602 L94.6694629,11.9995438 L97.3027034,12 Z M93.2110421,17.1418796 L91.2665954,23.9985173 L86,23.9974909 L91.8335687,3.42780566 L95.4390898,0 L103.338926,0.00136861314 L105,3.43020073 L99.1664313,24 L93.899836,23.9990876 L95.8443969,17.1424498 L93.2110421,17.1418796 Z" id="Fill-17" fill="#000000"></path>
                    <polygon id="Fill-19" fill="#000000" points="113.85373 3.42796858 117.45373 0 125.341469 0.00159673809 127 3.43036369 126.029322 6.85867442 120.770792 6.857762 121.256187 5.14354961 118.626751 5.14309339 117.413376 9.42851033 122.671906 9.4295368 124.330323 12.8583038 122.146156 20.5720314 118.546156 24 110.658417 23.9985173 109 20.5696363 109.970678 17.1413256 115.229094 17.1423521 114.743813 18.8564504 117.373021 18.8570207 118.58651 14.5714897 113.328094 14.5705772 111.669563 11.1416962"></polygon>
                    <path d="M136.247264,5.1442421 L133.614024,5.14378588 L132.155603,10.2863172 L134.788958,10.2868874 L136.247264,5.1442421 Z M130.697182,15.4289625 L128.266595,24 L123,23.9990876 L129.805735,0 L140.338926,0.00205299776 L142,3.43101547 L139.569299,12.002053 L135.963892,15.429989 L130.697182,15.4289625 Z" id="Fill-21" fill="#000000"></path>
                    <path d="M147.373135,18.8569962 L151.256187,5.14357405 L148.626865,5.14311784 L144.743813,18.85654 L147.373135,18.8569962 Z M152.14627,20.5721292 L148.54627,24 L140.658531,23.9985173 L139,20.5697341 L143.85373,3.42787082 L147.488955,0 L155.341583,0.00148269242 L157,3.43037999 L152.14627,20.5721292 Z" id="Fill-23" fill="#000000"></path>
                    <path d="M166.24723,5.14378582 L163.613973,5.14332963 L162.155544,10.2855188 L164.788915,10.286089 L166.24723,5.14378582 Z M160.820077,15.427936 L160.697229,15.427822 L158.266627,23.9984033 L153,23.9973769 L159.805776,0 L170.33903,0.00193881333 L172,3.43067317 L169.569398,12.0011405 L166.374075,15.0346991 L167.149643,24 L161.566989,23.9989736 L160.820077,15.427936 Z" id="Fill-25" fill="#000000"></path>
                    <g id="Group-29" transform="translate(173.000000, 0.000000)">
                        <mask id="mask-2" fill="white">
                            <use xlink:href="#path-1"></use>
                        </mask>
                        <g id="Clip-28"></g>
                        <polygon id="Fill-27" fill="#000000" mask="url(#mask-2)" points="15.925322 0.0672682464 14.4759035 5.19587488 10.5500028 5.19519242 5.23516596 24.0000455 0.000669503546 23.9990218 5.31550638 5.19416872 1.38960567 5.19348626 2.83913759 0.0648796209"></polygon>
                    </g>
                </g>
            </g>
        </g>
    </g>
</svg>